<?xml version="1.0" encoding="utf-8"?>
<!-- Generator: Adobe Illustrator 25.0.0, SVG Export Plug-In . SVG Version: 6.00 Build 0)  -->
<svg version="1.1" id="Layer_1" xmlns="http://www.w3.org/2000/svg" xmlns:xlink="http://www.w3.org/1999/xlink" x="0px" y="0px"
	 viewBox="0 0 120 120" style="enable-background:new 0 0 120 120;" xml:space="preserve">
<style type="text/css">
	.st0{fill:#FFFFFF;}
	.st1{fill:#CDAA5C;}
	.st2{fill-rule:evenodd;clip-rule:evenodd;fill:#CDAA5C;}
</style>
<circle class="st0" cx="60" cy="60" r="59"/>
<g>
	<path class="st1" d="M60.68,83.18v-0.39h-0.39c-0.19,0-0.36-0.08-0.49-0.2l0,0c-0.02-0.02-0.04-0.04-0.06-0.07
		c-0.22,0.26-0.37,0.58-0.45,0.87l0,0c-0.08,0.32-0.07,0.6,0.05,0.73c0.13,0.13,0.41,0.13,0.74,0.05c0.29-0.08,0.61-0.23,0.86-0.44
		c-0.02-0.02-0.05-0.04-0.07-0.06l0,0C60.76,83.54,60.68,83.37,60.68,83.18 M60.95,80.47c-0.25-0.21-0.57-0.37-0.86-0.44
		c-0.32-0.08-0.61-0.08-0.74,0.05c-0.12,0.12-0.13,0.41-0.05,0.73l0,0c0.08,0.3,0.23,0.62,0.45,0.87c0.02-0.02,0.04-0.05,0.06-0.07
		c0.13-0.13,0.3-0.2,0.49-0.2h0.39v-0.39c0-0.19,0.08-0.36,0.2-0.49C60.9,80.51,60.92,80.49,60.95,80.47z M59.61,81.97
		c-0.2-0.21-0.36-0.47-0.48-0.73c-0.29,0.02-0.6,0.14-0.83,0.3c-0.25,0.17-0.42,0.38-0.42,0.56c0,0.18,0.17,0.39,0.42,0.56
		c0.24,0.16,0.54,0.28,0.83,0.3c0.11-0.26,0.27-0.52,0.48-0.73c-0.01-0.04-0.01-0.08-0.01-0.12v0C59.6,82.06,59.6,82.02,59.61,81.97
		z M59.03,80.96c-0.01-0.03-0.01-0.05-0.02-0.08h0c-0.11-0.42-0.08-0.81,0.13-1.01c0.2-0.2,0.6-0.23,1.02-0.12
		c0.02,0.01,0.04,0.01,0.07,0.02c0.02-0.18,0.07-0.36,0.14-0.53c-0.36-0.32-0.82-0.54-1.27-0.63c-0.47-0.1-0.89-0.07-1.1,0.14l0,0
		c-0.2,0.2-0.24,0.63-0.14,1.1c0.1,0.44,0.32,0.91,0.63,1.27C58.67,81.03,58.85,80.98,59.03,80.96z M60.51,79.87
		c0.26,0.11,0.52,0.27,0.73,0.48c0.04-0.01,0.08-0.01,0.12-0.01h0c0.04,0,0.08,0,0.12,0.01c0.21-0.2,0.47-0.36,0.73-0.48
		c-0.02-0.29-0.14-0.6-0.3-0.83c-0.17-0.25-0.38-0.42-0.56-0.42c-0.18,0-0.39,0.17-0.56,0.42C60.65,79.27,60.53,79.57,60.51,79.87z
		 M63.13,82.22c0.2,0.21,0.36,0.47,0.48,0.73c0.29-0.02,0.6-0.14,0.83-0.3c0.25-0.17,0.42-0.38,0.42-0.56
		c0-0.18-0.17-0.39-0.42-0.56c-0.24-0.16-0.54-0.28-0.83-0.3c-0.11,0.26-0.27,0.52-0.48,0.73c0.01,0.04,0.01,0.08,0.01,0.12v0
		C63.14,82.14,63.13,82.18,63.13,82.22z M63.71,83.24c0.01,0.02,0.01,0.04,0.02,0.07c0.11,0.42,0.08,0.82-0.12,1.02
		c-0.2,0.2-0.59,0.23-1.01,0.13c-0.03-0.01-0.05-0.01-0.08-0.02c-0.02,0.18-0.07,0.36-0.14,0.53c0.36,0.32,0.82,0.54,1.27,0.63
		c0.47,0.1,0.89,0.07,1.1-0.14l0,0c0.2-0.2,0.24-0.63,0.14-1.1c-0.1-0.44-0.32-0.91-0.63-1.27C64.07,83.17,63.89,83.22,63.71,83.24z
		 M62.23,84.33c-0.26-0.11-0.52-0.27-0.73-0.48c-0.04,0.01-0.08,0.01-0.13,0.01h0c-0.04,0-0.08,0-0.12-0.01
		c-0.21,0.2-0.47,0.36-0.73,0.48c0.02,0.29,0.14,0.6,0.3,0.83c0.17,0.25,0.38,0.42,0.56,0.42c0.18,0,0.39-0.17,0.56-0.42
		C62.09,84.93,62.21,84.63,62.23,84.33z M61.79,83.73c0.26,0.22,0.58,0.37,0.87,0.45c0.32,0.08,0.6,0.07,0.73-0.05
		c0.13-0.13,0.13-0.41,0.05-0.74c-0.08-0.29-0.23-0.61-0.44-0.86c-0.02,0.02-0.04,0.05-0.06,0.07l0,0c-0.13,0.12-0.3,0.2-0.49,0.2
		h-0.39v0.39c0,0.19-0.08,0.36-0.2,0.49l0,0C61.84,83.69,61.81,83.71,61.79,83.73z M62.99,81.68c0.21-0.25,0.37-0.57,0.44-0.86
		c0.08-0.32,0.08-0.61-0.05-0.74c-0.12-0.12-0.41-0.13-0.73-0.05l0,0c-0.3,0.08-0.62,0.23-0.87,0.45c0.02,0.02,0.05,0.04,0.07,0.06
		c0.12,0.12,0.2,0.3,0.2,0.49v0.39h0.39c0.19,0,0.36,0.08,0.49,0.2C62.96,81.63,62.98,81.66,62.99,81.68z M62.51,79.76
		c0.03-0.01,0.05-0.01,0.08-0.02v0c0.42-0.11,0.81-0.08,1.01,0.13c0.2,0.2,0.23,0.6,0.12,1.02c-0.01,0.02-0.01,0.04-0.02,0.07
		c0.18,0.02,0.36,0.07,0.53,0.14c0.32-0.36,0.54-0.82,0.63-1.27c0.1-0.47,0.07-0.89-0.14-1.1l0,0c-0.2-0.2-0.62-0.24-1.08-0.14
		c-0.45,0.09-0.92,0.31-1.28,0.64C62.44,79.4,62.49,79.58,62.51,79.76z M60.22,84.44c-0.02,0.01-0.04,0.01-0.07,0.02
		c-0.42,0.11-0.82,0.08-1.02-0.12c-0.2-0.2-0.23-0.59-0.13-1.01h0c0.01-0.03,0.01-0.05,0.02-0.08c-0.18-0.02-0.36-0.07-0.53-0.14
		c-0.32,0.36-0.54,0.82-0.63,1.27c-0.1,0.47-0.07,0.89,0.14,1.1c0.2,0.2,0.63,0.24,1.1,0.14c0.44-0.1,0.91-0.32,1.27-0.63
		C60.3,84.8,60.25,84.62,60.22,84.44z M58.23,82.96c-0.03-0.02-0.06-0.04-0.09-0.06c-0.32-0.22-0.55-0.52-0.55-0.81
		c0-0.29,0.22-0.58,0.55-0.81c0.03-0.02,0.06-0.04,0.09-0.06c-0.06-0.08-0.13-0.16-0.18-0.24c-0.36,0.01-0.73,0.16-1.01,0.37l0,0
		c-0.29,0.22-0.49,0.49-0.49,0.73c0,0.24,0.2,0.52,0.49,0.73l0,0c0.29,0.21,0.66,0.37,1.01,0.37C58.1,83.12,58.16,83.04,58.23,82.96
		z M64.51,81.24c0.03,0.02,0.06,0.04,0.09,0.06c0.32,0.22,0.55,0.52,0.55,0.81c0,0.29-0.22,0.58-0.55,0.81
		c-0.03,0.02-0.06,0.04-0.09,0.06c0.06,0.08,0.13,0.16,0.18,0.24c0.36-0.01,0.73-0.16,1.01-0.37l0,0c0.29-0.22,0.49-0.49,0.49-0.73
		c0-0.24-0.2-0.52-0.49-0.73l0,0C65.42,81.16,65.05,81,64.69,81C64.64,81.08,64.58,81.16,64.51,81.24z M60.27,78.78
		c0.08,0.06,0.16,0.12,0.24,0.18c0.02-0.03,0.04-0.06,0.06-0.09c0.22-0.32,0.52-0.55,0.81-0.55c0.29,0,0.58,0.22,0.81,0.55
		c0.02,0.03,0.04,0.06,0.06,0.09c0.08-0.06,0.16-0.13,0.24-0.18c-0.01-0.36-0.16-0.73-0.37-1.01l0,0c-0.22-0.29-0.49-0.49-0.73-0.49
		c-0.24,0-0.52,0.2-0.73,0.49l0,0C60.42,78.05,60.27,78.42,60.27,78.78z M62.47,85.42c-0.08-0.06-0.16-0.12-0.24-0.18
		c-0.02,0.03-0.04,0.06-0.06,0.09c-0.22,0.32-0.52,0.55-0.81,0.55c-0.29,0-0.58-0.22-0.81-0.55c-0.02-0.03-0.04-0.06-0.06-0.09
		c-0.08,0.06-0.16,0.13-0.24,0.18c0.01,0.36,0.16,0.73,0.37,1.01l0,0c0.22,0.29,0.49,0.49,0.73,0.49c0.24,0,0.52-0.2,0.73-0.49l0,0
		C62.31,86.15,62.46,85.78,62.47,85.42z M61.65,81.82c-0.07-0.07-0.17-0.12-0.28-0.12c-0.11,0-0.21,0.04-0.28,0.12
		c-0.07,0.07-0.12,0.17-0.12,0.28c0,0.11,0.04,0.21,0.12,0.28c0.07,0.07,0.17,0.12,0.28,0.12c0.11,0,0.21-0.04,0.28-0.12
		c0.07-0.07,0.12-0.17,0.12-0.28C61.76,81.99,61.72,81.89,61.65,81.82z M60.68,82.49V81.7h-0.39c-0.11,0-0.21,0.04-0.28,0.12
		c-0.07,0.07-0.12,0.17-0.12,0.28v0c0,0.11,0.04,0.21,0.12,0.28l0,0c0.07,0.07,0.17,0.12,0.28,0.12H60.68z M62.06,81.7v0.79h0.39
		c0.11,0,0.21-0.04,0.28-0.12l0,0c0.07-0.07,0.12-0.17,0.12-0.28v0c0-0.11-0.04-0.21-0.12-0.28c-0.07-0.07-0.17-0.12-0.28-0.12
		H62.06z M60.97,81.41h0.79v-0.39c0-0.11-0.04-0.21-0.12-0.28c-0.07-0.07-0.17-0.12-0.28-0.12h0c-0.11,0-0.21,0.04-0.28,0.12
		c-0.07,0.07-0.12,0.17-0.12,0.28V81.41z M61.76,82.79h-0.79v0.39c0,0.11,0.04,0.21,0.12,0.28l0,0c0.07,0.07,0.17,0.12,0.28,0.12h0
		c0.11,0,0.21-0.04,0.28-0.12l0,0c0.07-0.07,0.12-0.17,0.12-0.28V82.79z"/>
	<path class="st1" d="M53.45,70.65c-0.05-0.24-0.11-0.46-0.16-0.69c-0.14-0.61-0.28-1.21-0.4-1.94c-0.03-0.19-0.12-0.24-0.23-0.22
		c-0.16,0.02-0.35,0.13-0.48,0.21c-0.65,0.39-1.26,0.85-1.83,1.36c-0.58,0.51-1.12,1.07-1.66,1.65c-0.03,0.03-0.05,0.06-0.07,0.1
		c-0.02,0.04-0.03,0.08-0.03,0.12c0,0.03,0.01,0.06,0.04,0.08l0.01,0.01c0.01,0.01,0.03,0.02,0.05,0.03
		c0.58,0.29,1.18,0.53,1.79,0.77c0.26,0.1,0.52,0.21,0.77,0.31c0.23-0.59,0.56-1.07,0.96-1.38C52.56,70.77,52.98,70.62,53.45,70.65
		 M51.92,67.82c-0.34-0.38-1.29-0.1-2.14,0.63c-0.83,0.71-1.25,1.59-0.96,1.99c0.43-0.45,0.86-0.88,1.32-1.29
		C50.71,68.65,51.29,68.2,51.92,67.82z M52.26,73.16l-0.7-0.73c0.21-0.49,0.49-0.89,0.82-1.16c0.29-0.23,0.63-0.35,1.01-0.34
		l0.72,0.75c1.02-0.48,2.2-0.54,3.18,0.47c1.23,1.26,3.68,4.92,1.77,6.68c-2.59,2.39-4.44,0.78-6.87-2.06
		C51.23,75.64,51.25,74.38,52.26,73.16z"/>
	<path class="st2" d="M66.11,28.02c-0.47,1.21-1.14,2.45-1.91,3.72c-1.71,3.14-2.04,6.35-0.7,9.61c0.26,0.64,0.58,0.48,0.52-0.44
		c-0.14-2.13-0.1-4.33,0.95-5.61c3.15,7.15,5.43,13.82,4.99,19.25c-0.32,3.97-3.32,6.47-6.21,8.79c-0.42,0.34-0.61,0.89-0.02,0.71
		c6.82-2.03,10.13-8.26,8.88-17.3C71.73,40.29,69,34.28,66.8,28.17C66.54,27.4,66.31,27.46,66.11,28.02"/>
	<path class="st2" d="M68.46,21.8c-1.07,0.56-2.17,1.02-3.33,1.43c-1.65,0.6-3.12,0.47-4.27-0.9c-0.35-0.42-0.32-0.89,0.12-1.1
		c1.41-0.64,3.05-0.72,3.59,0.59c0.13,0.32,0.33,0.52,0.52,0.2c0.18-0.31,0.16-0.74,0.31-1.01c0.35-0.66,0.43-1.4-0.13-1.71
		c-2.79-1.55-5.39,0.01-5.83,3.1c-0.23,1.57,0.41,2.57,2.3,2.96c-0.56,0.82-0.92,1.68-1.08,2.58c-0.06,0.35,0.32,0.48,0.59,0.1
		c0.81-1.16,2.1-2.15,4.16-2.86c0.97-0.33,1.87-0.78,2.38-1.68c0.26-0.47,0.46-1.01,0.82-1.35C68.92,21.86,68.74,21.65,68.46,21.8"
		/>
	<path class="st2" d="M56.9,35.6c-0.29-0.03-0.67,0.02-1.15,0.18c-1.77,0.55-2.96,0.39-2.71-0.83c0.46-2.25,1.71-4.39,3.35-6.48
		C56.65,29.97,56.72,32.75,56.9,35.6 M55.04,23.53c-0.25,1.82-1.07,3.38-2.05,4.92c-1.25,1.83-2.51,3.84-1.4,6.45
		c0.88,2.07,2.5,3.43,4.53,3.13c0.3-0.04,0.61-0.1,0.96-0.1c0.19,2.04,0.49,3.93,1,5.2c1.04,2.19,2.33,4.07,4.58,4.77
		c-0.02,1.06,0.11,2.12,0.7,3.18c0.71,2.08,1.3,4.22,0.05,7.29c-1.83,1.38-3.79,1.37-5.75,1.4c-0.68,0.01-1.12,0.43-0.7,0.93
		c4.12,4.86,4.14,10.91,4.3,16.97c0.02,0.57,0.24,0.74,0.33,0.28c0.19-0.97,0.46-1.9,0.84-2.85c1.81-4.5,1.62-8.62-1.5-11.78
		c-0.54-0.55-0.58-1.05,0.19-1.17c3.5-0.54,8.65-2.28,4.44-10c-0.49-1.39-0.41-2.62,0.33-3.65c0.47-0.6,0.98-1.17,1.73-1.59
		c0.74-0.91-0.01-2.15-0.7-3.18c-0.79-1.17-1.5-1.13-2.3-0.86c-1.41,0.46-5.1,7.41-5.08-4.7c0-9.35-1.68-11.56-4.02-14.54
		C55.22,23.26,55.08,23.23,55.04,23.53z"/>
	<path class="st1" d="M57.29,94.82c-0.13,0.13-0.37,0.31-0.7,0.53l0.01-0.2c0.1-0.13,0.2-0.33,0.3-0.58
		c0.02-0.05,0.04-0.11,0.06-0.18c0.02-0.06,0.04-0.13,0.05-0.19c0.01-0.06,0.03-0.12,0.03-0.17c0.01-0.05,0.01-0.12,0.01-0.18h0.72
		c0,0.16-0.04,0.31-0.12,0.47C57.57,94.49,57.45,94.66,57.29,94.82 M55.99,93.71v-0.74h0.08h0.31h5.2c0.18,0,0.34-0.05,0.47-0.16
		c0.09-0.08,0.12-0.2,0.12-0.33v-1.11c-0.16,0.05-0.35,0.11-0.57,0.13l-0.37,0.03l-0.4,0.02h-1.44c-0.37,0-0.71,0.1-1.03,0.31
		c-0.31,0.19-0.48,0.34-0.48,0.46v0.53h-0.74v-5.02c0-0.09-0.02-0.15-0.07-0.2c-0.04-0.05-0.1-0.07-0.16-0.07h-0.16l-0.15,0.1
		c0-0.19,0.07-0.35,0.2-0.48c0.13-0.13,0.27-0.2,0.43-0.2h0.04l0.26-0.51l0.35-0.57v5.45c0.1-0.09,0.21-0.16,0.32-0.22
		c0.11-0.06,0.25-0.12,0.4-0.16c0.08-0.03,0.17-0.05,0.28-0.07c0.04-0.01,0.1-0.02,0.19-0.04c0.08-0.01,0.17-0.02,0.26-0.03
		c0.09-0.01,0.19-0.01,0.3-0.01h1.47c0.17,0,0.31-0.01,0.42-0.02c0.11-0.01,0.2-0.03,0.26-0.05c0.06-0.02,0.14-0.05,0.22-0.08
		c0.26-0.11,0.5-0.21,0.68-0.37l0.23-0.19v2.39c0,0.05,0,0.09,0,0.13c-0.01,0.06-0.02,0.11-0.03,0.16c-0.01,0.05-0.03,0.12-0.06,0.2
		h0.37h0.65c0.38,0,0.74-0.09,1.09-0.27c0.07-0.04,0.16-0.09,0.25-0.14c0.09-0.06,0.17-0.12,0.25-0.18
		c0.15-0.12,0.33-0.27,0.52-0.47l0.62-0.65c0.26-0.27,0.51-0.39,0.73-0.39h0.08c0-0.29-0.17-0.43-0.5-0.43h-0.18
		c0-0.16-0.02-0.35-0.15-0.47l-0.16-0.15l-0.15-0.13l-0.15,0.13l-0.17,0.15c-0.05,0.04-0.08,0.13-0.11,0.22
		c-0.02,0.07-0.04,0.16-0.05,0.25h-0.17c-0.34,0-0.5,0.14-0.5,0.43h0.07c0.15,0,0.29,0.06,0.43,0.15c0.08,0.05,0.16,0.1,0.24,0.17
		l0.28,0.27l-0.26,0.28l-0.15,0.15l-0.14,0.12c-0.14-0.15-0.26-0.28-0.4-0.34l-0.19-0.07c-0.07-0.03-0.14-0.03-0.21-0.03H64.2
		c0-0.61,0.09-1.07,0.27-1.38c0.18-0.3,0.41-0.46,0.68-0.46h0.05l0.13-0.27c0.02-0.03,0.14-0.15,0.36-0.34
		c0.22-0.19,0.4-0.4,0.52-0.61c0.1,0.21,0.27,0.42,0.51,0.63l0.37,0.32l0.12,0.27h0.05c0.27,0,0.5,0.15,0.68,0.46
		c0.08,0.14,0.15,0.34,0.2,0.58c0.05,0.24,0.07,0.51,0.07,0.8h-0.54c-0.24,0-0.49,0.11-0.72,0.36l-0.6,0.65
		c-0.17,0.18-0.36,0.32-0.55,0.46c-0.19,0.13-0.39,0.26-0.61,0.37c-0.41,0.2-0.86,0.3-1.34,0.3v0h-0.03h-0.65h-6.81h-0.31H55.99z
		 M55.35,95.49c-0.27,0.36-0.59,0.61-0.94,0.77l-0.44,0.19l-0.38,0.14c-0.2,0.07-0.4,0.1-0.58,0.1l0.22-0.16l0.2-0.14l0.41-0.25
		l0.23-0.15c0.07-0.05,0.14-0.12,0.22-0.2c0.14-0.13,0.33-0.35,0.54-0.68c0.22-0.33,0.32-0.81,0.32-1.45V91.2
		c-0.32,0.07-0.54,0.14-0.68,0.21c-0.14,0.07-0.28,0.13-0.39,0.2c-0.08,0.05-0.19,0.15-0.34,0.29c-0.12,0.11-0.22,0.27-0.29,0.48
		c-0.07,0.21-0.1,0.41-0.1,0.61H55v0.74H52.6v-0.58c0-0.29,0.05-0.6,0.16-0.94c0.11-0.34,0.29-0.62,0.54-0.86
		c0.25-0.23,0.58-0.43,0.99-0.57l0.85-0.29l0.21-0.1l0.18-0.1l0.18-0.15l0.18-0.16v3.72C55.9,94.38,55.72,95,55.35,95.49z
		 M50.72,95.5c-0.14,0.22-0.3,0.4-0.5,0.55c-0.2,0.15-0.43,0.28-0.7,0.39l-0.18,0.03l-0.27,0.08c-0.19,0.04-0.35,0.06-0.47,0.06
		c-0.07,0-0.15-0.01-0.25-0.03c0.15-0.05,0.29-0.12,0.44-0.22l0.43-0.27c0.14-0.09,0.3-0.22,0.46-0.37
		c0.08-0.08,0.16-0.18,0.26-0.31c0.05-0.06,0.09-0.12,0.14-0.18c0.05-0.06,0.1-0.15,0.16-0.25c0.1-0.16,0.18-0.36,0.23-0.61
		c0.05-0.25,0.08-0.55,0.08-0.91v-2.06c0-0.08-0.02-0.15-0.06-0.19c-0.04-0.04-0.1-0.07-0.18-0.08c-0.1,0-0.15,0-0.16,0.01
		l-0.05,0.03l-0.1,0.06c0-0.2,0.07-0.37,0.2-0.49c0.13-0.13,0.28-0.19,0.44-0.19l0.31-0.45l0.35-0.48v3.5
		C51.29,94.13,51.1,94.92,50.72,95.5z M70.76,92.98h0.05h1.03v-5.15c0-0.08-0.03-0.15-0.08-0.21c-0.04-0.04-0.08-0.08-0.15-0.09
		c-0.06-0.01-0.11,0.01-0.16,0.03l-0.08,0.03l-0.07,0.03c0-0.07,0-0.12,0.01-0.14c0-0.03,0.02-0.08,0.04-0.14
		c0.02-0.07,0.07-0.13,0.14-0.2c0.13-0.13,0.28-0.2,0.44-0.2h0.05l0.34-0.63l0.26-0.44v7.84h-1.77h-0.05h-1.82h-0.35
		c-0.19,0-0.39-0.02-0.57-0.05c-0.18-0.03-0.37-0.09-0.56-0.16c-0.19-0.08-0.37-0.16-0.54-0.26c-0.16-0.1-0.34-0.22-0.53-0.38
		l0.14-0.13l0.15-0.15l0.22-0.29c0.32,0.24,0.6,0.42,0.84,0.52c0.24,0.11,0.52,0.16,0.84,0.16h0.35h0.72v-5.15
		c0-0.08-0.03-0.15-0.08-0.21c-0.03-0.04-0.08-0.08-0.16-0.09c-0.1-0.01-0.15,0.01-0.16,0.01l-0.05,0.03
		c-0.02,0.01-0.06,0.03-0.1,0.06c0-0.19,0.07-0.35,0.19-0.48c0.13-0.13,0.27-0.2,0.44-0.2h0.04l0.26-0.52l0.36-0.56v7.1H70.76z"/>
	<path class="st2" d="M55.3,99.58c-0.07,0.02-0.17,0.05-0.31,0.08c-0.14,0.03-0.23,0.06-0.28,0.1c-0.07,0.05-0.12,0.12-0.14,0.19
		c-0.02,0.08-0.01,0.14,0.03,0.2c0.04,0.06,0.09,0.08,0.17,0.08c0.09,0,0.17-0.03,0.27-0.1c0.07-0.05,0.12-0.11,0.15-0.18
		c0.02-0.05,0.05-0.14,0.08-0.27L55.3,99.58z M54.77,99.13l-0.41-0.09c0.09-0.2,0.21-0.35,0.35-0.45c0.14-0.1,0.33-0.15,0.56-0.15
		c0.21,0,0.36,0.03,0.45,0.09c0.09,0.06,0.15,0.13,0.17,0.22c0.02,0.09,0.01,0.25-0.05,0.49l-0.15,0.64
		c-0.04,0.18-0.06,0.32-0.07,0.4c0,0.09,0,0.18,0.02,0.28h-0.47c0-0.04-0.01-0.09-0.01-0.16c0-0.03,0-0.05,0-0.06
		c-0.1,0.09-0.2,0.16-0.31,0.21c-0.1,0.05-0.21,0.07-0.31,0.07c-0.18,0-0.32-0.06-0.39-0.17c-0.08-0.12-0.1-0.26-0.06-0.44
		c0.03-0.12,0.07-0.22,0.14-0.31c0.07-0.09,0.15-0.16,0.25-0.21c0.1-0.05,0.23-0.09,0.4-0.13c0.23-0.05,0.4-0.09,0.49-0.13
		l0.01-0.06c0.02-0.11,0.02-0.18-0.02-0.23c-0.04-0.05-0.12-0.07-0.24-0.07c-0.08,0-0.15,0.02-0.21,0.06
		C54.87,98.97,54.82,99.04,54.77,99.13z M51.58,98.53l-0.46,2.04h0.53l0.31-1.49c0.37-0.23,0.69-0.27,0.58,0.17
		c-0.11,0.44-0.25,0.88-0.37,1.32h0.49l0.4-1.46c0.01-0.04,0.02-0.07,0.02-0.11c0.31-0.16,0.55-0.15,0.45,0.24
		c-0.11,0.44-0.25,0.88-0.37,1.32h0.49l0.4-1.46c0.17-0.61-0.51-0.73-1.06-0.43c-0.17-0.21-0.59-0.21-0.96-0.02l0.05-0.24
		L51.58,98.53z M49.79,97.85l-0.64,2.72h0.53l0.31-1.44c0.4-0.27,0.78-0.36,0.65,0.12c-0.11,0.44-0.25,0.88-0.37,1.32h0.49l0.4-1.46
		c0.17-0.62-0.53-0.74-1.09-0.41l0.21-0.97L49.79,97.85z M48.65,99.2l0.34-1.32h-0.21l-0.82,1.32H48.65z M58.11,97.8l-0.48,0.05
		l-0.5,2.22c-0.06,0.25-0.47,0.2-0.5-0.06c-0.1-0.91,0.4-1.46,0.49-1.05c0.02,0.17,0.22,0.06,0.18-0.21
		c-0.07-0.67-1.39-0.26-1.19,1.15c0.12,0.83,1.27,1.13,1.48,0.16C57.78,99.32,57.95,98.56,58.11,97.8z M58.91,101.31l0.48-0.05
		l0.5-2.22c0.06-0.25,0.47-0.2,0.5,0.06c0.1,0.91-0.4,1.46-0.49,1.05c-0.02-0.17-0.22-0.06-0.18,0.21c0.07,0.67,1.39,0.26,1.19-1.15
		c-0.12-0.83-1.27-1.13-1.48-0.16C59.25,99.8,59.08,100.55,58.91,101.31z M61.61,99.64L61.61,99.64c0.22-0.11,0.51-0.37,0.71-0.46
		c0.28-0.12,0.18-0.36-0.09-0.37C61.92,98.79,61.5,99.37,61.61,99.64z M61.67,99.94c0.14,0.28,0.56,0.35,0.83-0.03
		c0.29-0.41,0.45-0.12,0.31,0.1c-0.19,0.31-0.43,0.54-0.84,0.56c-1.1,0.05-1.08-1.53-0.13-2.04c0.42-0.22,1.1,0.01,1.05,0.61
		c-0.01,0.07-0.09,0.16-0.16,0.2L61.67,99.94z M70.48,99.64L70.48,99.64c0.22-0.11,0.51-0.37,0.71-0.46
		c0.28-0.12,0.18-0.36-0.09-0.37C70.79,98.79,70.37,99.37,70.48,99.64z M70.54,99.94c0.14,0.28,0.56,0.35,0.83-0.03
		c0.29-0.41,0.45-0.12,0.31,0.1c-0.19,0.31-0.43,0.54-0.84,0.56c-1.1,0.05-1.08-1.53-0.13-2.04c0.42-0.22,1.1,0.01,1.05,0.61
		c-0.01,0.07-0.09,0.16-0.16,0.2L70.54,99.94z M65.47,98.58h0.52l-0.26,1.17c-0.03,0.14-0.05,0.23-0.05,0.26
		c0,0.06,0.02,0.11,0.06,0.15c0.04,0.04,0.08,0.06,0.14,0.06c0.04,0,0.08-0.01,0.12-0.03c0.04-0.02,0.08-0.05,0.12-0.08
		c0.04-0.04,0.08-0.08,0.11-0.13c0.03-0.05,0.07-0.11,0.09-0.19c0.02-0.06,0.04-0.15,0.07-0.27l0.21-0.94h0.52l-0.43,1.97h-0.48
		l0.05-0.25c-0.14,0.14-0.28,0.23-0.44,0.28h-0.37c-0.07-0.02-0.12-0.06-0.17-0.11c-0.08-0.09-0.12-0.22-0.12-0.37
		c0-0.07,0.02-0.2,0.07-0.41L65.47,98.58z M63.95,98.93c-0.1,0.04-0.19,0.11-0.26,0.21l-0.26,1.44h-0.48l0.37-2.03h0.48l-0.04,0.18
		c0.14-0.19,0.27-0.19,0.44-0.19l0,0.05h0.26l0.07-0.29c0.04-0.18,0.09-0.31,0.13-0.39c0.05-0.08,0.12-0.14,0.22-0.2
		c0.1-0.05,0.24-0.08,0.42-0.08c0.12,0,0.3,0.02,0.54,0.07l-0.09,0.38c-0.16-0.04-0.3-0.06-0.41-0.06c-0.09,0-0.17,0.02-0.22,0.06
		c-0.05,0.04-0.09,0.14-0.13,0.3l-0.05,0.21h0.47l-0.09,0.39h-0.47l-0.38,1.6h-0.48l0.38-1.6h-0.43L63.95,98.93z M67.39,98.53
		l-0.46,2.04h0.53l0.31-1.49c0.37-0.23,0.69-0.27,0.58,0.17c-0.11,0.44-0.25,0.88-0.37,1.32h0.49l0.4-1.46
		c0.01-0.04,0.02-0.07,0.02-0.11c0.31-0.16,0.55-0.15,0.45,0.24c-0.11,0.44-0.25,0.88-0.37,1.32h0.49l0.4-1.46
		c0.17-0.61-0.51-0.73-1.06-0.43c-0.17-0.21-0.59-0.21-0.96-0.02l0.05-0.24L67.39,98.53z M73.21,98.9c-0.13-0.14-0.3-0.14-0.46-0.09
		c-0.16,0.04-0.2,0.24-0.07,0.34c0.11,0.08,0.24,0.13,0.35,0.19c0.11,0.07,0.24,0.13,0.33,0.22c0.2,0.21,0.16,0.59-0.07,0.79
		c-0.4,0.35-1.06,0.3-1.38-0.14c-0.14-0.19,0.05-0.42,0.24-0.19c0.5,0.6,1.28-0.13,0.72-0.33c-0.14-0.05-0.26-0.12-0.39-0.19
		c-0.48-0.24-0.39-0.89,0.06-1.01c0.23-0.06,0.5-0.05,0.74,0.01C73.82,98.65,73.55,99.29,73.21,98.9z M46.41,100.58l1.87-2.84
		c0.19-0.33,0.44-0.33,1.33-0.33l-0.7,3.18H48.3l0.21-0.83h-0.88l-0.51,0.83H46.41z"/>
</g>
</svg>
