<svg xmlns="http://www.w3.org/2000/svg" width="78.01" height="76.88" viewBox="0 0 78.01 76.88"><defs><style>.a,.b,.c{fill:#0d4673;}.a{opacity:0.75;}.b{opacity:0.52;}.c{opacity:0.47;}.d{fill:#bdc3d8;}.e{fill:#fff;}.f{fill:#21365f;}</style></defs><g transform="translate(-10.19 -211.52)"><circle class="a" cx="14" cy="14" r="14" transform="translate(34.44 260.4)"/><circle class="b" cx="12" cy="12" r="12" transform="translate(10.19 227.65)"/><circle class="c" cx="20" cy="20" r="20" transform="translate(48.2 211.52)"/><rect class="d" width="48" height="63.96" rx="3" transform="translate(17.94 217.69)"/><path class="e" d="M20.94,217.65h39v57a3,3,0,0,1-3,3h-39v-57a3,3,0,0,1,3-3Z"/><path class="f" d="M62.94,282.4h-42a3.75,3.75,0,0,1-3.75-3.75v-58a3.75,3.75,0,0,1,3.75-3.75h42a3.75,3.75,0,0,1,3.75,3.75v58a3.75,3.75,0,0,1-3.75,3.75Zm-42-64a2.25,2.25,0,0,0-2.25,2.25v58a2.25,2.25,0,0,0,2.25,2.25h42a2.25,2.25,0,0,0,2.25-2.25v-58a2.25,2.25,0,0,0-2.25-2.25Z"/><path class="f" d="M51.94,225.44h-20a3.75,3.75,0,0,1-3.75-3.75v-4a.75.75,0,0,1,.75-.75h26a.75.75,0,0,1,.75.75v4a3.75,3.75,0,0,1-3.75,3.75Zm-22.25-7v3.25a2.25,2.25,0,0,0,2.25,2.25h20a2.25,2.25,0,0,0,2.25-2.25v-3.25Z"/><path class="f" d="M36.91,264.4h-8a.75.75,0,0,1,0-1.5h8a.75.75,0,0,1,0,1.5Z"/><path class="f" d="M24.94,264.4h-2a.75.75,0,1,1,0-1.5h2a.75.75,0,0,1,0,1.5Z"/><path class="f" d="M36.33,270.4H28.95a.75.75,0,0,1,0-1.5h7.39a.75.75,0,0,1,0,1.5Z"/><path class="f" d="M24.94,270.4h-2a.75.75,0,1,1,0-1.5h2a.75.75,0,0,1,0,1.5Z"/><path class="f" d="M37.49,258.4H28.94a.75.75,0,0,1,0-1.5h8.55a.75.75,0,1,1,0,1.5Z"/><path class="f" d="M24.94,258.4h-2a.75.75,0,1,1,0-1.5h2a.75.75,0,0,1,0,1.5Z"/><path class="f" d="M38.08,252.4H28.94a.75.75,0,0,1,0-1.5h9.13a.75.75,0,0,1,0,1.5Z"/><path class="f" d="M24.94,252.4h-2a.75.75,0,0,1,0-1.5h2a.75.75,0,1,1,0,1.5Z"/><path class="f" d="M38.66,246.4H28.94a.75.75,0,0,1,0-1.5h9.71a.75.75,0,1,1,0,1.5Z"/><path class="f" d="M24.94,246.4h-2a.75.75,0,0,1,0-1.5h2a.75.75,0,1,1,0,1.5Z"/><path class="f" d="M40.36,240.4H28.94a.75.75,0,0,1,0-1.5H40.36a.75.75,0,0,1,0,1.5Z"/><path class="f" d="M24.94,240.4h-2a.75.75,0,0,1,0-1.5h2a.75.75,0,1,1,0,1.5Z"/><path class="f" d="M48.36,234.4H39.65a.75.75,0,0,1,0-1.5h8.71a.75.75,0,0,1,0,1.5Z"/><path class="f" d="M35.65,234.4H28.94a.75.75,0,0,1,0-1.5h6.71a.75.75,0,1,1,0,1.5Z"/><path class="f" d="M24.94,234.4h-2a.75.75,0,0,1,0-1.5h2a.75.75,0,1,1,0,1.5Z"/><path class="e" d="M77.13,242.65H44.76a2,2,0,0,0-2,1.81l-2.61,27a2,2,0,0,0,2,2.19H79.74a2,2,0,0,0,2-2.19l-2.61-27A2,2,0,0,0,77.13,242.65Z"/><path class="d" d="M79.12,244.46a2,2,0,0,0-2-1.81h-1.8l2.4,24.81a2,2,0,0,1-2,2.19H40.33l-.17,1.81a2,2,0,0,0,2,2.19H79.74a2,2,0,0,0,2-2.19Z"/><path class="f" d="M79.74,274.4H42.15a2.75,2.75,0,0,1-2.74-3l2.61-27a2.74,2.74,0,0,1,2.74-2.49H77.13a2.74,2.74,0,0,1,2.74,2.49l2.61,27a2.75,2.75,0,0,1-2.74,3Zm-35-31a1.24,1.24,0,0,0-1.24,1.13l-2.61,27a1.25,1.25,0,0,0,1.24,1.37H79.74A1.25,1.25,0,0,0,81,271.53l-2.61-27a1.24,1.24,0,0,0-1.24-1.13Z"/><path class="f" d="M72.95,247.4a.75.75,0,0,1-.75-.75v-3a9.26,9.26,0,0,0-9.25-9.25h-4a9.26,9.26,0,0,0-9.25,9.25v3a.75.75,0,0,1-1.5,0v-3A10.76,10.76,0,0,1,58.95,232.9h4A10.76,10.76,0,0,1,73.7,243.65v3A.75.75,0,0,1,72.95,247.4Z"/><path class="e" d="M71.15,255.08a5.49,5.49,0,0,0-10.2-2.75,5.49,5.49,0,0,0-10.2,2.75c0,6.4,10.2,12.57,10.2,12.57S71.15,261.48,71.15,255.08Z"/><path class="d" d="M65.66,249.65a5.489,5.489,0,0,0-1.22.15,5.37,5.37,0,0,1,1.9,4.08c0,4.79-5.73,9.46-8.6,11.5a34.65,34.65,0,0,0,3.2,2.27s10.2-6.17,10.2-12.57A5.46,5.46,0,0,0,65.66,249.65Z"/><path class="f" d="M60.95,268.41a.75.75,0,0,1-.39-.11C60.13,268,50,261.83,50,255.08a6.21,6.21,0,0,1,6.23-6.18,6.28,6.28,0,0,1,4.72,2.15,6.28,6.28,0,0,1,4.72-2.15,6.21,6.21,0,0,1,6.23,6.18c0,6.74-10.13,13-10.56,13.21a.75.75,0,0,1-.39.12Zm-4.72-18a4.71,4.71,0,0,0-4.73,4.68c0,5.23,7.62,10.5,9.45,11.68,1.82-1.19,9.45-6.46,9.45-11.68a4.71,4.71,0,0,0-4.73-4.68,4.76,4.76,0,0,0-4.07,2.31.78.78,0,0,1-1.29,0A4.76,4.76,0,0,0,56.23,250.41Z"/><path class="f" d="M72.33,222.4H70.94a.75.75,0,1,1,0-1.5h1.38a.75.75,0,0,1,0,1.5Z"/><path class="f" d="M76.94,222.4H75.56a.75.75,0,1,1,0-1.5h1.38a.75.75,0,0,1,0,1.5Z"/><path class="f" d="M73.94,225.4a.75.75,0,0,1-.75-.75v-1.38a.75.75,0,1,1,1.5,0v1.38A.75.75,0,0,1,73.94,225.4Z"/><path class="f" d="M73.94,220.79a.75.75,0,0,1-.75-.75v-1.38a.75.75,0,0,1,1.5,0V220a.75.75,0,0,1-.75.79Z"/><path class="f" d="M77.33,234.4H75.95a.75.75,0,1,1,0-1.5h1.38a.75.75,0,0,1,0,1.5Z"/><path class="f" d="M81.95,234.4H80.56a.75.75,0,1,1,0-1.5h1.38a.75.75,0,0,1,0,1.5Z"/><path class="f" d="M78.95,237.4a.75.75,0,0,1-.75-.75v-1.38a.75.75,0,1,1,1.5,0v1.38A.75.75,0,0,1,78.95,237.4Z"/><path class="f" d="M78.95,232.79a.75.75,0,0,1-.75-.75v-1.38a.75.75,0,0,1,1.5,0V232a.75.75,0,0,1-.75.79Z"/></g></svg>