<svg xmlns="http://www.w3.org/2000/svg" width="80.38" height="81.23" viewBox="0 0 80.38 81.23"><defs><style>.a,.b,.c{fill:#0d4673;}.a{opacity:0.5;}.b{opacity:0.44;}.c{opacity:0.8;}.d{fill:#bdc3d8;}.e{fill:#fff;}.f{fill:#21365f;}</style></defs><g transform="translate(-491.58 -331.72)"><circle class="a" cx="14" cy="14" r="14" transform="translate(543.96 347.99)"/><circle class="b" cx="12" cy="12" r="12" transform="translate(508.32 331.72)"/><circle class="c" cx="20" cy="20" r="20" transform="translate(491.58 372.95)"/><path class="d" d="M502.33,339.7h44a2,2,0,0,1,2,2v8h-48v-8A2,2,0,0,1,502.33,339.7Z"/><path class="e" d="M502.33,339.7h40v1a6,6,0,0,1-6,6h-36v-5A2,2,0,0,1,502.33,339.7Z"/><path class="f" d="M543.32,345.71a1.025,1.025,0,1,1,.71-.3,1,1,0,0,1-.71.3Z"/><path class="f" d="M536.32,344.71a1,1,0,0,1,1-1h0a1,1,0,0,1,1,1h0a1,1,0,0,1-1,1h0A1,1,0,0,1,536.32,344.71Z"/><path class="f" d="M531.33,345.71a.99.99,0,1,1,.7-.29,1,1,0,0,1-.7.29Z"/><path class="f" d="M548.33,350.46h-48a.75.75,0,0,1-.75-.75v-8a2.75,2.75,0,0,1,2.75-2.75h44a2.75,2.75,0,0,1,2.75,2.75v8A.75.75,0,0,1,548.33,350.46ZM501.08,349h46.5v-7.25a1.25,1.25,0,0,0-1.25-1.25h-44a1.25,1.25,0,0,0-1.25,1.25Z"/><path class="d" d="M500.33,349.7h48v52a2,2,0,0,1-2,2h-44a2,2,0,0,1-2-2v-52Z"/><path class="e" d="M500.33,349.7h42v47a3,3,0,0,1-3,3h-39v-50Z"/><path class="f" d="M546.33,404.46h-44a2.75,2.75,0,0,1-2.75-2.75v-52a.75.75,0,0,1,.75-.75h48a.75.75,0,0,1,.75.75v52a2.75,2.75,0,0,1-2.75,2.75Zm-45.25-54v51.25a1.25,1.25,0,0,0,1.25,1.25h44a1.25,1.25,0,0,0,1.25-1.25V350.46Z"/><path class="e" d="M525.32,379.21h-18a2.5,2.5,0,0,0-2.5,2.5h0a2.5,2.5,0,0,0,2.5,2.5h18a2.5,2.5,0,0,0,2.5-2.5h0a2.5,2.5,0,0,0-2.5-2.5Z"/><path class="f" d="M553.71,343.46h-1.38a.75.75,0,0,1,0-1.5h1.38a.75.75,0,0,1,0,1.5Z"/><path class="f" d="M558.33,343.46h-1.38a.75.75,0,0,1,0-1.5h1.38a.75.75,0,1,1,0,1.5Z"/><path class="f" d="M555.33,346.46a.75.75,0,0,1-.75-.75v-1.38a.75.75,0,0,1,1.5,0v1.38a.75.75,0,0,1-.75.75Z"/><path class="f" d="M555.33,341.84a.75.75,0,0,1-.75-.75v-1.38a.75.75,0,0,1,1.5,0v1.38a.75.75,0,0,1-.75.75Z"/><path class="f" d="M559.71,354.46h-1.38a.75.75,0,0,1,0-1.5h1.38a.75.75,0,0,1,0,1.5Z"/><path class="f" d="M564.33,354.46h-1.38a.75.75,0,1,1,0-1.5h1.38a.75.75,0,1,1,0,1.5Z"/><path class="f" d="M561.33,357.46a.75.75,0,0,1-.75-.75v-1.38a.75.75,0,0,1,1.5,0v1.38a.75.75,0,0,1-.75.75Z"/><path class="f" d="M561.33,352.84a.75.75,0,0,1-.75-.75v-1.38a.75.75,0,0,1,1.5,0v1.38a.75.75,0,0,1-.75.75Z"/><path class="f" d="M556.71,400.46h-1.38a.75.75,0,0,1,0-1.5h1.38a.75.75,0,0,1,0,1.5Z"/><path class="f" d="M561.33,400.46h-1.38a.75.75,0,0,1,0-1.5h1.38a.75.75,0,1,1,0,1.5Z"/><path class="f" d="M558.33,403.46a.75.75,0,0,1-.75-.75v-1.38a.75.75,0,0,1,1.5,0v1.38a.75.75,0,0,1-.75.75Z"/><path class="f" d="M558.33,398.85a.75.75,0,0,1-.75-.75v-1.38a.75.75,0,0,1,1.5,0v1.38a.75.75,0,0,1-.75.75Z"/><circle class="e" cx="9" cy="9" r="9" transform="translate(507.33 355.71)"/><path class="d" d="M521.46,357.32a9,9,0,0,1-12.52,12.52,9,9,0,1,0,12.52-12.52Z"/><path class="f" d="M516.33,374.46a9.75,9.75,0,1,1,9.75-9.75,9.75,9.75,0,0,1-9.75,9.75Zm0-18a8.25,8.25,0,1,0,8.25,8.25,8.25,8.25,0,0,0-8.25-8.25Z"/><path class="f" d="M516.33,370.22a3.35,3.35,0,0,1-3.14-2,.75.75,0,0,1,1.38-.58,1.88,1.88,0,0,0,1.76,1.07,1.76,1.76,0,0,0,1.87-1.63c0-1.08-.63-1.63-1.88-1.63a3,3,0,0,1-3.37-3.13,3.26,3.26,0,0,1,3.37-3.13,3.35,3.35,0,0,1,3.14,2,.75.75,0,1,1-1.38.58,1.89,1.89,0,0,0-1.76-1.07,1.77,1.77,0,0,0-1.87,1.63c0,1.08.63,1.63,1.87,1.63a3,3,0,0,1,3.38,3.13,3.26,3.26,0,0,1-3.37,3.13Z"/><path class="f" d="M516.32,360.69a.75.75,0,0,1-.75-.75v-1.31a.75.75,0,0,1,1.5,0v1.31A.75.75,0,0,1,516.32,360.69Z"/><path class="f" d="M516.32,371.53a.75.75,0,0,1-.75-.75v-1.31a.75.75,0,0,1,1.5,0v1.31a.75.75,0,0,1-.75.75Z"/><path class="e" d="M525.32,379.21h-18a2.5,2.5,0,0,0-2.5,2.5h0a2.5,2.5,0,0,0,2.5,2.5h18a2.5,2.5,0,0,0,2.5-2.5h0a2.5,2.5,0,0,0-2.5-2.5Z"/><path class="d" d="M525.78,379.25a2.48,2.48,0,0,1-2.45,3h-18a2.577,2.577,0,0,1-.45,0,2.5,2.5,0,0,0,2.45,2h18a2.51,2.51,0,0,0,.45-5Z"/><path class="f" d="M525.33,385h-18a3.25,3.25,0,1,1,0-6.5h18a3.25,3.25,0,1,1,0,6.5Zm-18-5a1.75,1.75,0,0,0,0,3.5h18a1.75,1.75,0,1,0,0-3.5Z"/><path class="d" d="M509.32,379.21h14v16a2,2,0,0,1-2,2h-10a2,2,0,0,1-2-2Z"/><path class="e" d="M509.32,379.21h11v14a1,1,0,0,1-1,1h-10Z"/><path class="f" d="M521.33,398h-10a2.75,2.75,0,0,1-2.75-2.75v-16a.75.75,0,0,1,.75-.75h14a.75.75,0,0,1,.75.75v16a2.75,2.75,0,0,1-2.75,2.75Zm-11.25-18v15.25a1.25,1.25,0,0,0,1.25,1.25h10a1.25,1.25,0,0,0,1.25-1.25V380Z"/><path class="f" d="M517.32,395a.75.75,0,0,1-.75-.75v-2a.75.75,0,0,1,1.5,0v2A.75.75,0,0,1,517.32,395Z"/><path class="f" d="M517.32,390a.75.75,0,0,1-.75-.75v-2a.75.75,0,0,1,1.5,0v2A.75.75,0,0,1,517.32,390Z"/><path class="f" d="M517.32,385a.75.75,0,0,1-.75-.75v-2a.75.75,0,0,1,1.5,0v2a.75.75,0,0,1-.75.75Z"/><path class="f" d="M513.32,388a.75.75,0,0,1-.75-.75v-5a.75.75,0,0,1,1.5,0v5a.75.75,0,0,1-.75.75Z"/><path class="e" d="M548.33,355.71l-16,8v12c0,16,16,20,16,20s16-4,16-20v-12Z"/><path class="d" d="M559.33,361.21v14.5c0,12-9,17.25-13.5,19.13a19.583,19.583,0,0,0,2.5.88s16-4,16-20v-12Z"/><path class="f" d="M548.33,396.46h-.18c-.17,0-16.57-4.33-16.57-20.73v-12A.75.75,0,0,1,532,363l16-8a.75.75,0,0,1,.67,0l16,8a.75.75,0,0,1,.41.67v12c0,16.39-16.4,20.69-16.57,20.73Zm-15.25-32.29V375.7c0,14.5,13.43,18.72,15.25,19.23,1.82-.51,15.25-4.74,15.25-19.23V364.17l-15.25-7.63Z"/><path class="e" d="M548.33,361.15l-11,5.56v9a16.34,16.34,0,0,0,1,5.84l18.62-16Z"/><path class="d" d="M557,365.51l-8.64-4.37-3.18,1.61,5.66,2.86a1,1,0,0,1,.2,1.65L537.6,378.81a15.212,15.212,0,0,0,.75,2.73Z"/><path class="f" d="M538.34,382.29h-.19a.75.75,0,0,1-.52-.46,17.16,17.16,0,0,1-1.06-6.1v-9A.75.75,0,0,1,537,366l11-5.56a.75.75,0,0,1,.68,0l8.64,4.37a.75.75,0,0,1,.15,1.24l-18.62,16a.75.75,0,0,1-.51.24Zm-.26-15.12v8.54a16.16,16.16,0,0,0,.62,4.54l16.93-14.57-7.3-3.69Z"/><path class="e" d="M541,385.89a16.74,16.74,0,0,0,7.38,4.82s11-3,11-15v-5.63Z"/><path class="d" d="M558.33,370.93v1.77a15.24,15.24,0,0,1-9.39,14.39,3.93,3.93,0,0,1-3.21,0,17.53,17.53,0,0,1-3.64-2.19l-1.14,1a16.74,16.74,0,0,0,7.38,4.82s11-3,11-15v-5.63Z"/><path class="f" d="M548.33,391.46h-.2a17.37,17.37,0,0,1-7.74-5,.75.75,0,0,1,.08-1.06l18.38-15.81a.75.75,0,0,1,1.24.57v5.63c0,12.43-11.44,15.69-11.55,15.73ZM542,386a16.36,16.36,0,0,0,6.3,4,14.62,14.62,0,0,0,10.25-14.22v-4Z"/></g></svg>