<?xml version="1.0" encoding="utf-8"?>
<!-- Generator: Adobe Illustrator 25.0.0, SVG Export Plug-In . SVG Version: 6.00 Build 0)  -->
<svg version="1.1" id="Layer_1" xmlns="http://www.w3.org/2000/svg" xmlns:xlink="http://www.w3.org/1999/xlink" x="0px" y="0px"
	 viewBox="0 0 120 120" style="enable-background:new 0 0 120 120;" xml:space="preserve">
<style type="text/css">
	.st0{fill:#002A17;}
	.st1{fill:#C3996B;}
</style>
<rect class="st0" width="120" height="120"/>
<g>
	<g>
		<g>
			<path class="st1" d="M79.3,84.8H68.6L60,70.1l-8.6,14.7H40.7l16.3-25.4h5.9L79.3,84.8z M69.7,82.9h6L61.9,61.3h-3.7L44.3,82.9h6
				L60,66.3L69.7,82.9z"/>
		</g>
		<g>
			<g>
				<path class="st1" d="M34.6,86.6V29l24.1,17.7V55l-8.3,9V50.5l-8.1-3.8v30.7L34.6,86.6z M36.6,32.8v48.4l3.8-4.6v-33l12,5.6V59
					l4.4-4.8v-6.5L36.6,32.8z"/>
			</g>
			<g>
				<path class="st1" d="M85.4,86.6l-7.7-9.3V46.7l-8.1,3.8V64l-8.3-9v-8.3L85.4,29V86.6z M79.6,76.7l3.8,4.6V32.8L63.2,47.7v6.5
					l4.4,4.8v-9.7l12-5.6V76.7z"/>
			</g>
		</g>
		<g>
			<rect x="57.8" y="75.9" class="st1" width="4.3" height="1.9"/>
		</g>
	</g>
	<polygon class="st1" points="26.7,17.3 26.7,98.8 35.1,98.8 35.1,96.8 28.7,96.8 28.7,19.3 91.3,19.3 91.3,96.8 85.1,96.8 
		85.1,98.8 93.3,98.8 93.3,17.3 	"/>
	<g>
		<path class="st1" d="M38.5,95.3c0.2-0.5,0.9-0.8,1.7-0.8c1.5,0,1.8,0.7,1.8,1.8v3h-3.8l0.3-0.6H41v-2.7c0-0.9-0.4-1.1-0.9-1.1
			c-0.6,0-0.9,0.2-1,0.7C38.8,95.5,38.8,95.5,38.5,95.3z"/>
		<path class="st1" d="M43.7,101.7c0.4,0.2,0.8,0.3,1.2,0.3c1,0,1.4-0.4,1.6-0.9c0.1-0.3,0.2-0.6,0.2-0.9v-1.1H45
			c-1.2,0-2.2-1.1-2.2-2.4c0-1.4,1.2-2.4,2.8-2.4c0.8,0,2.2,0.4,2.2,1.7v2.6h1.8v0.6h-1.8v1.2c0,1.2-1,2.2-2.3,2.2
			c-0.6,0-1-0.1-1.7-0.5L43.7,101.7z M46.7,98.6v-1.5c0-1.5,0-2.5-1.2-2.5c-0.9,0-1.6,0.8-1.6,1.9c0,1.2,0.6,2,1.7,2H46.7z"/>
		<path class="st1" d="M49.4,99.2l0-0.6h2.5c0.5,0,1.3,0.1,1.8-1.1c0.4-1.1,1-1.8,1.3-2.1c-0.7-0.4-1.3-0.5-1.8-0.5
			c-0.5,0-1.2,0-1.8,0.5c0.3,0.3,0.8,1.1,1.3,2.1c0.6,1.2,1.3,1.1,1.8,1.1h2.5v0.6h-2.2c-2,0-2.7-0.5-3.5-2.5
			c-0.4-1-0.8-1.3-1.1-1.5c1.2-0.7,2.6-0.7,3-0.7c0.3,0,1.7,0,3,0.7c-0.3,0.2-0.7,0.5-1.1,1.5c-0.8,2-1.5,2.5-3.5,2.5H49.4z"/>
		<path class="st1" d="M60.1,97.6c0,0.3,0,1.7-1.4,1.7h-1.9v-0.6h1.5c0.8,0,0.9-0.8,0.9-1.7v-7.2c0-0.6,0-0.7-0.2-0.9l0,0l1.3-0.7
			v0.1c-0.1,0.1-0.2,0.4-0.2,1V97.6z"/>
		<path class="st1" d="M61.7,99.2v-9.4c0-0.6,0-0.9-0.2-0.9c0,0-0.1,0-0.2,0c0,0-0.1,0-0.1,0l-0.1-0.2c1-0.6,0.6-0.4,1.6-0.9
			l0.1,0.1c-0.1,0.2-0.2,0.4-0.2,1.1v10H61.7z"/>
		<path class="st1" d="M66.4,95.8c0-0.5-0.1-1.3-0.2-1.4h1.4c0,0.1-0.2,0.9-0.2,1.4v1.7c0.1,0.7,0.7,1.1,1.2,1.1h0.9v0.6h-0.5
			c-0.2,0-0.4,0-0.6-0.1c-0.3-0.1-0.7-0.2-1-0.6v1.9c0,1.2-1,2.2-2.3,2.2c-0.6,0-1-0.1-1.7-0.5l0-0.4c0.4,0.2,0.8,0.3,1.2,0.3
			c1,0,1.4-0.4,1.6-0.9c0.1-0.3,0.2-0.6,0.2-0.9V95.8z"/>
		<path class="st1" d="M72.6,94.3c1.3,0,2.5,0.6,2.6,1.9c0.1,1.6-1.8,3.1-3.5,3.1h-2.3v-0.6h2.6c1.2-0.3,2.2-1.4,2.2-2.4
			c0-1-0.6-1.6-1.5-1.6c-0.8,0-1.5,0.6-1.5,1.6c0,1,0.9,2.1,2.1,2.4h2.6v0.6h-2.3c-1.7,0-3.6-1.5-3.5-3.1
			C70.1,94.8,71.2,94.3,72.6,94.3z M71.6,91c0.3,0,0.6,0.3,0.6,0.6c0,0.3-0.3,0.6-0.6,0.6c-0.3,0-0.6-0.3-0.6-0.6
			C71,91.3,71.3,91,71.6,91z M73.6,91c0.3,0,0.6,0.3,0.6,0.6c0,0.3-0.3,0.6-0.6,0.6s-0.6-0.3-0.6-0.6C72.9,91.3,73.2,91,73.6,91z"/>
		<path class="st1" d="M77.5,97.1c0-1.4,1.2-2.4,2.7-2.4s2.5,1,2.5,2.4c0,0.7-0.2,1.3-0.7,1.7c-0.5,0.5-1.2,0.7-2,0.7
			c-0.8,0-1.4-0.3-1.8-0.7c-0.2,0.2-0.5,0.4-1,0.4h-1.4v-0.6h0.9c0.7,0,0.9-0.6,0.9-1.4V97.1z M80,95c-0.9,0-1.4,0.7-1.4,1.9
			c0,1.4,0.6,2.4,1.5,2.4c0.9,0,1.4-0.7,1.4-2C81.5,95.9,80.9,95,80,95z"/>
	</g>
	<g>
		<g>
			<path class="st1" d="M71.6,33H48.4c0.1,0.8,0,1.3,0,1.3h23.1C71.6,34.2,71.6,33.7,71.6,33z"/>
		</g>
		<g>
			<path class="st1" d="M72.7,29c-0.3,0-0.6,0.3-0.6,0.6c0,0.2,0.1,0.3,0.2,0.4c-0.9,0.6-2.7,1.7-4.2,1.4c-1.5-0.3-1.2-3.3-0.9-4.7
				c0,0,0.1,0,0.1,0c0.4,0,0.8-0.3,0.8-0.8c0-0.4-0.3-0.8-0.8-0.8c-0.4,0-0.8,0.3-0.8,0.8c0,0.3,0.1,0.5,0.3,0.6
				C66,27.7,64.2,29.9,63,30c-1.3,0.1-2.4-4.2-2.8-6.1c0.4-0.1,0.8-0.5,0.8-0.9c0-0.5-0.4-0.9-0.9-0.9c-0.5,0-0.9,0.4-0.9,0.9
				c0,0.5,0.3,0.8,0.8,0.9c-0.4,1.9-1.4,6.2-2.8,6.1c-1.3-0.1-3.1-2.3-3.9-3.5c0.2-0.1,0.4-0.4,0.4-0.6c0-0.4-0.3-0.8-0.8-0.8
				c-0.4,0-0.8,0.3-0.8,0.8c0,0.4,0.3,0.8,0.8,0.8c0,0,0.1,0,0.1,0c0.3,1.4,0.6,4.4-0.9,4.7c-1.5,0.3-3.4-0.9-4.3-1.4
				c0.1-0.1,0.1-0.2,0.1-0.4c0-0.3-0.3-0.6-0.6-0.6c-0.3,0-0.6,0.3-0.6,0.6c0,0.3,0.3,0.6,0.6,0.6c0.1,0,0.2,0,0.3-0.1
				c0.4,0.8,0.7,1.7,0.8,2.5h23.2c0.1-0.8,0.4-1.6,0.8-2.5c0.1,0,0.1,0,0.2,0c0.3,0,0.6-0.3,0.6-0.6C73.3,29.3,73,29,72.7,29z"/>
		</g>
		<g>
			<path class="st1" d="M60,22.2c0.4,0,0.8,0.3,0.8,0.8c0,0.4-0.3,0.7-0.6,0.8l-0.1,0l-0.1,0c-0.4-0.1-0.6-0.4-0.6-0.8
				C59.3,22.5,59.6,22.2,60,22.2 M60,23.8L60,23.8c0.5,2.4,1.5,6.3,2.9,6.3l0,0c1.3-0.1,3.1-2.2,4-3.5l0,0l0,0
				c-0.3,1.7-0.6,4.6,1,4.9c0.2,0,0.4,0.1,0.5,0.1c1.4,0,2.9-0.9,3.7-1.4c-0.3,0.7-0.6,1.4-0.7,2.3h-23c-0.2-0.8-0.4-1.6-0.7-2.3
				c0.8,0.6,2.3,1.4,3.7,1.4c0.2,0,0.4,0,0.6-0.1c1.6-0.3,1.3-3.2,1-4.9l0,0l0,0c0.9,1.3,2.7,3.5,4,3.5l0,0
				C58.5,30.1,59.4,26.7,60,23.8L60,23.8 M67.3,25.3c0.3,0,0.6,0.3,0.6,0.6c0,0.3-0.3,0.6-0.6,0.6c0,0-0.1,0-0.1,0l-0.1,0l-0.1-0.1
				c-0.2-0.1-0.3-0.3-0.3-0.5C66.7,25.6,66.9,25.3,67.3,25.3 M52.8,25.3c0.3,0,0.6,0.3,0.6,0.6c0,0.2-0.1,0.4-0.3,0.5L53,26.5
				l-0.1,0l0,0c0,0,0,0-0.1,0c-0.3,0-0.6-0.3-0.6-0.6C52.2,25.6,52.5,25.3,52.8,25.3 M72.7,29.1c0.2,0,0.4,0.2,0.4,0.4
				c0,0.2-0.2,0.4-0.4,0.4c-0.1,0-0.1,0-0.2,0l-0.1,0l-0.1-0.1c-0.1-0.1-0.1-0.2-0.1-0.3C72.3,29.3,72.4,29.1,72.7,29.1 M47.3,29.1
				c0.2,0,0.4,0.2,0.4,0.4c0,0.1,0,0.2-0.1,0.3l-0.1,0.1l-0.1,0c-0.1,0-0.1,0.1-0.2,0.1c-0.2,0-0.4-0.2-0.4-0.4
				C46.9,29.3,47.1,29.1,47.3,29.1 M60,22c-0.5,0-0.9,0.4-0.9,0.9c0,0.5,0.3,0.8,0.8,0.9c-0.4,1.9-1.4,6.1-2.7,6.1c0,0,0,0,0,0
				c-1.3-0.1-3.1-2.3-3.9-3.5c0.2-0.1,0.4-0.4,0.4-0.6c0-0.4-0.3-0.8-0.8-0.8c-0.4,0-0.8,0.3-0.8,0.8c0,0.4,0.3,0.8,0.8,0.8
				c0,0,0.1,0,0.1,0c0.3,1.4,0.6,4.4-0.9,4.7c-0.2,0-0.3,0-0.5,0c-1.4,0-3-1-3.7-1.5c0.1-0.1,0.1-0.2,0.1-0.4c0-0.3-0.3-0.6-0.6-0.6
				c-0.3,0-0.6,0.3-0.6,0.6c0,0.3,0.3,0.6,0.6,0.6c0.1,0,0.2,0,0.3-0.1c0.4,0.8,0.7,1.7,0.8,2.5h23.2c0.1-0.8,0.4-1.6,0.8-2.5
				c0.1,0,0.1,0,0.2,0c0.3,0,0.6-0.3,0.6-0.6c0-0.3-0.3-0.6-0.6-0.6c-0.3,0-0.6,0.3-0.6,0.6c0,0.2,0.1,0.3,0.2,0.4
				c-0.8,0.5-2.3,1.5-3.7,1.5c-0.2,0-0.4,0-0.5,0c-1.5-0.3-1.2-3.3-0.9-4.7c0,0,0.1,0,0.1,0c0.4,0,0.8-0.3,0.8-0.8
				c0-0.4-0.3-0.8-0.8-0.8c-0.4,0-0.8,0.3-0.8,0.8c0,0.3,0.1,0.5,0.3,0.6C66,27.7,64.2,29.9,63,30c0,0,0,0,0,0
				c-1.3,0-2.3-4.3-2.7-6.1c0.4-0.1,0.8-0.5,0.8-0.9C61,22.4,60.5,22,60,22L60,22z"/>
		</g>
	</g>
</g>
</svg>
