<?xml version="1.0" encoding="utf-8"?>
<!-- Generator: Adobe Illustrator 25.0.1, SVG Export Plug-In . SVG Version: 6.00 Build 0)  -->
<svg version="1.1" id="Layer_1" xmlns="http://www.w3.org/2000/svg" xmlns:xlink="http://www.w3.org/1999/xlink" x="0px" y="0px"
	 viewBox="0 0 195 260" style="enable-background:new 0 0 195 260;" xml:space="preserve">
<style type="text/css">
	.st0{fill-rule:evenodd;clip-rule:evenodd;fill:#BA880B;}
</style>
<g>
	<path class="st0" d="M97.5,18.6c0.3-1.3,0.9-2.6,1.6-3.8h0c1.2-2.1,3-3.9,5-5.4c2-1.4,4.3-2.5,6.7-3.2c5.7-1.7,12-1,16.4,2.8
		c3.3-3.4,7.4-4.5,11.1-5.5c1.5-0.4,3-0.8,4.1-1.3l2.8-1.3l0.3,3.1c0.1,1.2,0.5,2.6,0.9,4.2c1,3.7,2.1,7.8,0.8,12.4
		c5.5,1.9,9.2,7.1,10.6,12.8c0.6,2.4,0.8,5,0.5,7.4c-0.3,2.5-1,4.9-2.2,7c-0.7,1.2-1.5,2.3-2.5,3.3c1.3-0.4,2.7-0.5,4.1-0.5
		c2.4,0,4.9,0.6,7.1,1.6c2.2,1,4.3,2.4,6.1,4.2c4.3,4.1,6.9,9.9,5.8,15.6c4.6,1.1,7.6,4.2,10.3,6.9c1.1,1.1,2.2,2.2,3.1,2.9l2.5,1.8
		l-2.5,1.8c-1,0.7-2,1.8-3.1,2.9c-2.7,2.7-5.7,5.8-10.3,6.9c1.1,5.7-1.5,11.5-5.8,15.6c-1.8,1.7-3.9,3.1-6.1,4.2
		c-2.3,1-4.7,1.6-7.1,1.6c-1.4,0-2.7-0.2-4.1-0.5c1,1,1.8,2.1,2.5,3.3c1.2,2.1,1.9,4.5,2.2,7c0.2,2.4,0.1,5-0.5,7.4
		c-1.4,5.7-5.1,10.9-10.6,12.8c1.3,4.6,0.2,8.7-0.8,12.4l0,0c-0.4,1.5-0.8,3-0.9,4.2l-0.3,3.1l-2.8-1.3c-1.1-0.5-2.5-0.9-4.1-1.3
		c-3.7-1-7.8-2.1-11.1-5.5c-4.4,3.8-10.7,4.4-16.4,2.8c-2.4-0.7-4.7-1.8-6.7-3.2c-2-1.5-3.8-3.3-5-5.4c-0.7-1.2-1.2-2.5-1.6-3.8
		c-0.3,1.3-0.9,2.6-1.6,3.8c-1.2,2.1-3,3.9-5,5.4c-2,1.4-4.3,2.5-6.7,3.2c-5.7,1.7-12,1-16.4-2.8c-3.3,3.4-7.4,4.5-11.1,5.5
		c-1.5,0.4-3,0.8-4.1,1.3l-2.8,1.3l-0.3-3.1c-0.1-1.2-0.5-2.6-0.9-4.2l0,0c-1-3.7-2.1-7.8-0.8-12.4c-5.5-1.9-9.2-7.1-10.6-12.8
		c-0.6-2.4-0.8-5-0.5-7.4c0.3-2.5,1-4.9,2.2-7c0.7-1.2,1.5-2.3,2.5-3.3c-1.3,0.4-2.7,0.5-4.1,0.5c-2.4,0-4.9-0.6-7.1-1.6
		c-2.2-1-4.3-2.4-6.1-4.2c-4.3-4.1-6.9-9.9-5.8-15.6c-4.6-1.1-7.6-4.2-10.3-6.9c-1.1-1.1-2.2-2.2-3.1-2.9l-2.5-1.8l2.5-1.8
		c1-0.7,2-1.8,3.1-2.9c2.7-2.7,5.7-5.8,10.3-6.9c-1.1-5.7,1.5-11.5,5.8-15.6c1.8-1.7,3.9-3.1,6.1-4.2c2.3-1,4.7-1.6,7.1-1.6
		c1.4,0,2.7,0.2,4.1,0.5c-1-1-1.8-2.1-2.5-3.3c-1.2-2.1-1.9-4.5-2.2-7c-0.2-2.4-0.1-5,0.5-7.4c1.4-5.7,5.1-10.9,10.6-12.8
		c-1.3-4.6-0.2-8.7,0.8-12.4C49,6.7,49.4,5.2,49.6,4l0.3-3.1l2.8,1.3c1.1,0.5,2.5,0.9,4.1,1.3c3.7,1,7.8,2.1,11.1,5.5
		c4.4-3.8,10.7-4.4,16.4-2.8C86.7,6.9,89,8,90.9,9.5c2,1.5,3.8,3.3,5,5.4C96.6,16,97.2,17.3,97.5,18.6 M116,72.9
		c-3.5,0.2-6.4,1-8.7,2.4c-2.2,1.4-4,3.3-5.3,5.7c2.8,0,5.3-0.5,7.6-1.8C112,77.9,114.1,75.8,116,72.9z M146.7,55.2
		c-2.9,0.1-5.8-0.1-8.8-0.2c-6.2-0.3-12.4-0.6-16.8,1.5c-4.2,2-6.8,4.2-8.2,6.4c-0.8,1.2-1.2,2.4-1.3,3.4c0,0.8,0.2,1.5,0.5,2
		c0.2,0.2,0.5,0.4,0.8,0.6c1.5-0.2,3.2-0.3,4.9-0.3c2.5-3,2.6-5.7,1-8.3c4.4-0.8,6.6,1,8.5,3.4c3.6-5.8,8.6-7.3,14.6-5.6
		c-1.5,6.1-5.3,9.7-12.2,9.9c1,2.8,1.6,5.7-1.4,9.1c-1.4-2.7-3.8-4-7.6-3.3c-0.9,1.5-1.8,2.9-2.8,4.1c0,0.3,0,0.7,0.1,1
		c0.2,0.6,0.7,1.1,1.4,1.4c0.9,0.5,2.1,0.7,3.5,0.6c2.6-0.2,5.8-1.3,9.6-3.9c4-2.7,6.8-8.3,9.7-13.8l0.3-0.6
		c0.1-0.4,0.3-0.8,0.5-1.2c0.8-1.8,1.7-3.4,2.7-4.7C146.2,56,146.4,55.6,146.7,55.2z M85.4,88c-2.4,1.3-4.5,3.4-6.4,6.3
		c3.5-0.2,6.4-1,8.7-2.4c2.2-1.4,4-3.3,5.3-5.7C90.2,86.1,87.7,86.7,85.4,88z M76.9,89.5c0-0.3,0-0.7-0.1-1
		c-0.2-0.6-0.7-1.1-1.4-1.4c-0.9-0.5-2.1-0.7-3.5-0.6c-2.6,0.2-5.8,1.3-9.6,3.9c-4,2.7-6.8,8.3-9.7,13.8c-0.3,0.6-0.6,1.1-0.9,1.7
		c-0.5,1.2-1.1,2.3-1.7,3.2c-0.5,0.9-1.1,1.9-1.6,2.8c0.3,0,0.7,0,1,0c1.8-0.3,3.7-0.3,5.9-0.1c0.6,0.1,1.2,0.2,1.8,0.3l0,0
		c6.2,0.3,12.4,0.6,16.8-1.5c4.2-2,6.8-4.2,8.2-6.4c0.8-1.2,1.2-2.4,1.3-3.4c0-0.8-0.2-1.5-0.5-2c-0.2-0.2-0.5-0.4-0.8-0.6
		c-1.5,0.2-3.2,0.3-4.9,0.3c-2.5,3-2.6,5.7-1,8.3c-4.4,0.8-6.6-1-8.5-3.4C64,109.5,59,111,53,109.3c1.5-6.1,5.3-9.7,12.2-9.9
		c-1-2.8-1.6-5.7,1.4-9.1c1.4,2.7,3.8,4,7.6,3.3C75,92.1,75.9,90.8,76.9,89.5z M116,94.3c-1.9-2.9-4.1-5-6.4-6.3
		c-2.3-1.3-4.8-1.8-7.6-1.8c1.3,2.4,3.1,4.3,5.3,5.7C109.7,93.3,112.5,94.1,116,94.3z M147.4,104.1c0.5,0.9,0.9,1.7,1.4,2.6
		c2.4,3.7,5.6,5.2,8.9,5.2c1.8,0,3.6-0.5,5.3-1.2c1.8-0.8,3.4-1.9,4.9-3.3c3.7-3.6,5.8-8.7,4-13.3l-1.1-2.8l3.1-0.2
		c4.5-0.3,7.5-3.3,10.2-6c0.5-0.5,1-1.1,1.6-1.5c-0.5-0.5-1-1-1.6-1.5c-2.6-2.7-5.6-5.7-10.2-6l-3.1-0.2l1.1-2.8
		c1.9-4.7-0.3-9.8-4-13.3c-1.4-1.4-3.1-2.5-4.9-3.3c-1.7-0.8-3.6-1.2-5.3-1.2c-2.9,0-5.8,1.2-8.1,4.1c-0.9,1.6-1.8,3.2-2.6,4.9
		c-1.1,3.2-1.4,6.7-0.7,9.7c0.7,2.8,2.3,5.3,5,6.6c1.7,0.6,3.5,0.8,5,0.4c0.9-0.2,1.6-0.5,2.3-1l0,0c0.6-0.4,1-1,1.3-1.7
		c0.3-0.9,0.4-2,0.1-3.4l-0.3-1.5l0.3-0.1c-1.6-2.3-4.1-2.8-5.9-0.7c3.4,1.3,5.1,4.3,1.8,6.3c-3.5,1-5.4-0.5-6.3-3.7
		c-1.1-5.9,2.5-7.6,7.1-8.2c-1.5-2.9-2.9-5.8-2.4-9c9.4,2.7,8.6,7.6,10.1,11.9c1.6-2.1,3.4-4.9,6.1-4.7c-1.4,5.4,1.9,7.3-4.8,16.1
		c5.4-1.8,10.6-2.4,14.8,2.4c-4.3,4.8-9.4,4.2-14.8,2.4c6.7,8.9,3.4,10.7,4.8,16.1c-2.7,0.1-4.5-2.6-6.1-4.7
		c-1.4,4.3-0.7,9.2-10.1,11.9c-0.5-3.2,0.9-6.1,2.4-9c-4.6-0.7-8.2-2.3-7.1-8.2c0.9-3.2,2.8-4.7,6.3-3.7c3.3,2,1.6,5-1.8,6.3
		c1.8,2.1,4.3,1.7,5.9-0.7l-0.3-0.1l0.3-1.5c0.3-1.4,0.2-2.5-0.1-3.4c-0.3-0.7-0.7-1.3-1.3-1.7c-0.6-0.5-1.4-0.8-2.3-1
		c-1.5-0.3-3.3-0.2-5,0.4l-0.1,0v0l0,0c-2.7,1.3-4.3,3.8-4.9,6.6c-0.8,3.4-0.3,7.4,1.1,10.9L147.4,104.1z M129.5,83.6
		c1.7,0.7,3.6,1.7,5.6,3c2.5,0.4,5,0.7,7.3,0.6c-0.8,1.4-1.9,2.6-3.2,3.1c0.9,1,1.7,2.1,2.5,3.3c0.1-0.5,0.2-1,0.3-1.5
		c0.9-3.5,2.7-6.6,5.9-8.7c-3.1-2.1-5-5.2-5.9-8.7c-0.1-0.4-0.2-0.8-0.3-1.2c-0.8,1.2-1.6,2.3-2.5,3.4c1.4,0.5,2.4,1.6,3.2,3.1
		c-2.3-0.1-4.8,0.2-7.3,0.6C133.1,81.9,131.3,82.9,129.5,83.6z M114.6,86c0.6-0.9,1.3-1.7,2.3-2.4c-1-0.6-1.8-1.5-2.3-2.4
		c-0.9,0.7-1.9,1.4-2.8,1.9c-0.3,0.2-0.6,0.3-0.9,0.5c0.3,0.2,0.6,0.3,0.9,0.5C112.7,84.6,113.7,85.2,114.6,86z M146.7,112
		c-0.6-0.9-1.1-1.8-1.6-2.8c-0.6-1-1.2-2-1.7-3.2c-0.3-0.6-0.6-1.1-0.9-1.7c-2.9-5.6-5.7-11.1-9.7-13.8c-3.8-2.6-7-3.7-9.6-3.9
		c-1.5-0.1-2.7,0.1-3.5,0.6c-0.7,0.4-1.2,0.9-1.4,1.4c-0.1,0.3-0.2,0.6-0.1,1c1,1.2,1.9,2.6,2.8,4.1c3.8,0.7,6.2-0.6,7.6-3.3
		c2.9,3.4,2.4,6.3,1.4,9.1c6.8,0.2,10.6,3.8,12.2,9.9c-6,1.7-11,0.2-14.6-5.6c-1.9,2.3-4.1,4.2-8.5,3.4c1.6-2.6,1.5-5.3-1-8.3
		c-1.8,0-3.4-0.1-4.9-0.3c-0.3,0.1-0.6,0.3-0.8,0.6c-0.4,0.5-0.6,1.1-0.5,2c0,1,0.4,2.1,1.3,3.4c1.4,2.1,4,4.4,8.2,6.4
		c4.4,2.1,10.6,1.8,16.8,1.5l0,0c0.6-0.1,1.2-0.2,1.8-0.3c2.2-0.3,4.1-0.2,5.9,0.1C146,112,146.3,112,146.7,112z M87.7,75.3
		c-2.3-1.4-5.2-2.2-8.7-2.4c1.9,2.9,4.1,5,6.4,6.3c2.3,1.3,4.8,1.8,7.6,1.8C91.6,78.6,89.9,76.7,87.7,75.3z M48.1,64
		c-0.9-1.7-1.7-3.3-2.6-4.9c-2.3-2.9-5.2-4.1-8.1-4.1c-1.8,0-3.6,0.5-5.3,1.2c-1.8,0.8-3.4,1.9-4.9,3.3c-3.7,3.6-5.8,8.7-4,13.3
		l1.1,2.8l-3.1,0.2c-4.5,0.3-7.5,3.3-10.2,6c-0.5,0.5-1,1.1-1.6,1.5c0.5,0.5,1,1,1.6,1.5c2.6,2.7,5.6,5.7,10.2,6l3.1,0.2L23.1,94
		c-1.9,4.7,0.3,9.8,4,13.3c1.4,1.4,3.1,2.5,4.9,3.3c1.7,0.8,3.6,1.2,5.3,1.2c3.3,0,6.5-1.5,8.9-5.2c0.5-0.8,0.9-1.7,1.4-2.6l0.1-0.1
		c1.5-3.5,2-7.4,1.1-10.9c-0.7-2.8-2.3-5.3-5-6.6c-1.7-0.6-3.5-0.8-5-0.4c-0.9,0.2-1.6,0.5-2.3,1c-0.6,0.4-1,1-1.3,1.7
		c-0.3,0.9-0.4,2-0.1,3.4l0.3,1.5l-0.3,0.1c1.6,2.3,4.1,2.8,5.9,0.7c-3.4-1.3-5.1-4.3-1.8-6.3c3.5-1,5.4,0.5,6.3,3.7
		c1.1,5.9-2.5,7.6-7.1,8.2c1.5,2.9,2.9,5.8,2.4,9c-9.4-2.7-8.6-7.6-10.1-11.9c-1.6,2.1-3.4,4.9-6.1,4.7c1.4-5.4-1.9-7.3,4.8-16.1
		c-5.4,1.8-10.6,2.4-14.8-2.4c4.3-4.8,9.4-4.2,14.8-2.4c-6.7-8.9-3.4-10.7-4.8-16.1c2.7-0.1,4.5,2.6,6.1,4.7
		c1.4-4.3,0.7-9.2,10.1-11.9c0.5,3.2-0.9,6.1-2.4,9c4.6,0.7,8.2,2.3,7.1,8.2c-0.9,3.2-2.8,4.7-6.3,3.7c-3.3-2-1.6-5,1.8-6.3
		c-1.8-2.1-4.3-1.7-5.9,0.7l0.3,0.1l-0.3,1.5c-0.3,1.4-0.2,2.5,0.1,3.4c0.3,0.7,0.7,1.3,1.3,1.7l0,0c0.6,0.5,1.4,0.8,2.3,1
		c1.5,0.3,3.3,0.2,5-0.4c2.7-1.3,4.3-3.8,5-6.6C49.5,70.6,49.2,67.1,48.1,64z M65.5,83.6c-1.7-0.7-3.6-1.7-5.6-3
		c-2.5-0.4-5-0.7-7.3-0.6c0.8-1.4,1.9-2.6,3.2-3.1c-0.9-1-1.7-2.2-2.5-3.4c-0.1,0.4-0.2,0.8-0.3,1.2c-0.9,3.5-2.7,6.6-5.9,8.7
		c3.1,2.1,5,5.2,5.9,8.7c0.1,0.5,0.2,1,0.3,1.5c0.8-1.2,1.6-2.3,2.5-3.3c-1.4-0.5-2.4-1.6-3.2-3.1c2.3,0.1,4.8-0.2,7.3-0.6
		C61.9,85.3,63.7,84.3,65.5,83.6z M80.4,81.2c-0.6,0.9-1.3,1.7-2.4,2.4c1,0.6,1.8,1.5,2.4,2.4c0.9-0.7,1.9-1.4,2.8-1.9
		c0.3-0.2,0.6-0.3,0.9-0.5c-0.3-0.2-0.6-0.3-0.9-0.5C82.3,82.6,81.3,81.9,80.4,81.2z M82,68.7c0.3-0.1,0.6-0.3,0.8-0.6
		c0.4-0.5,0.6-1.1,0.5-2c0-1-0.4-2.1-1.3-3.4c-1.4-2.1-4-4.4-8.2-6.4c-4.4-2.1-10.6-1.8-16.8-1.5c-3,0.1-5.9,0.3-8.8,0.2
		c0.2,0.4,0.5,0.8,0.7,1.2c1,1.3,1.9,2.9,2.7,4.7c0.2,0.4,0.3,0.8,0.5,1.2l0.3,0.7c2.9,5.6,5.7,11.1,9.7,13.8c3.8,2.6,7,3.7,9.6,3.9
		c1.5,0.1,2.7-0.1,3.5-0.6c0.7-0.4,1.2-0.9,1.4-1.4c0.1-0.3,0.2-0.6,0.1-1c-1-1.2-1.9-2.6-2.8-4.1c-3.8-0.7-6.2,0.6-7.6,3.3
		c-2.9-3.4-2.4-6.3-1.4-9.1c-6.8-0.2-10.6-3.8-12.2-9.9c6-1.7,11-0.2,14.6,5.6c1.9-2.3,4.1-4.2,8.5-3.4c-1.6,2.6-1.5,5.3,1,8.3
		C78.8,68.4,80.5,68.5,82,68.7z M97.5,105c1.6-3.1,2.3-6,2.2-8.7c-0.1-2.6-0.8-5.1-2.2-7.5c-1.4,2.4-2.2,4.9-2.2,7.5
		C95.2,98.9,95.9,101.8,97.5,105z M87.8,100.4c1.1-0.5,2.2-0.8,3.2-0.8c-0.2-1.2-0.3-2.3-0.2-3.4c0-0.4,0-0.7,0.1-1.1
		c-0.3,0.2-0.6,0.4-0.9,0.6c-1,0.6-2,1.1-3.1,1.5C87.4,98.1,87.7,99.2,87.8,100.4z M84,126.6c-0.6-1.2-1.1-2.4-1.6-3.6
		c-1.1,0.9-2.6,1.3-4.3,1.3c1.2-2,2.2-4.2,3.1-6.6c-0.2-2.3-0.1-4.5,0.2-6.3c-1.5,1.2-3.3,2.3-5.4,3.3c-1.6,2-3.1,4-4.2,6
		c-0.8-1.4-1.3-2.9-1-4.3c-1.3,0.2-2.6,0.4-4,0.5c0.3,0.2,0.6,0.5,0.9,0.8c2.6,2.5,4.4,5.7,4.6,9.4c3.3-1.7,7-1.8,10.5-0.7
		C83.2,126.3,83.6,126.5,84,126.6z M92.6,140.7c-0.9-1.6-2-3.2-3-4.9c-2.2-2.5-5-4.5-8-5.4c-2.8-0.8-5.6-0.6-8.1,1l0,0l0,0
		c-1.4,1.2-2.4,2.6-2.9,4.1c-0.3,0.8-0.4,1.7-0.3,2.5c0.1,0.7,0.4,1.4,0.9,2c0.6,0.7,1.6,1.4,2.9,1.8l1.5,0.5l-0.1,0.3
		c2.8-0.2,4.5-2.1,3.6-4.8c-2.9,2.3-6.3,2.3-6.4-1.5c0.9-3.5,3.1-4.4,6.3-3.6c5.7,2,5.3,5.9,3.6,10.3c3.2,0.2,6.4,0.3,9,2.4
		c-7,6.8-10.9,3.7-15.3,2.8c1,2.4,2.5,5.4,1,7.7c-4-3.9-7.2-2-11.6-12.3c-1.1,5.6-3.2,10.3-9.5,11.6c-2-6.1,1-10.3,5.3-14.1
		c-11,1.3-11-2.4-16.4-3.9c1.2-2.4,4.5-2.6,7.2-2.9c-3-3.3-7.7-5.2-5.3-14.7c3,1.2,4.8,3.9,6.5,6.6c2.9-3.7,6.1-5.9,10.7-2
		c2.4,2.4,2.7,4.8,0.1,7.3c-3.4,1.8-5.1-1.1-4.5-4.7c-2.8,0.5-3.6,2.9-2.4,5.5l0.2-0.3l1.2,1.1c1,0.9,2.1,1.4,3,1.6
		c0.7,0.1,1.5,0,2.1-0.2c0.7-0.3,1.4-0.8,2-1.5c1-1.2,1.8-2.8,2.1-4.5c0.2-3-1.1-5.6-3.2-7.6c-2.1-2-5.1-3.5-8.2-4.1
		c-2.2-0.1-4.4-0.2-6.6-0.2c-3.4,0.6-5.8,2.5-7.1,4.9c-0.9,1.6-1.4,3.4-1.6,5.2c-0.2,1.9,0,4,0.4,5.9c1.2,5,4.6,9.4,9.6,10.1l3,0.4
		l-1.3,2.7c-2,4.1-0.9,8.2,0.1,11.8h0c0.2,0.7,0.4,1.4,0.6,2.1c0.7-0.2,1.4-0.4,2.1-0.6c3.6-1,7.7-2,10.3-5.8l1.7-2.5l1.9,2.4
		c3.1,3.9,8.6,4.7,13.6,3.2c1.9-0.6,3.7-1.4,5.3-2.6c1.5-1.1,2.8-2.5,3.7-4C93.6,147.3,94,144.2,92.6,140.7z M105.4,135.9
		c-1,1.6-2.1,3.3-3,4.9c-1.4,3.4-1,6.5,0.5,9c0.9,1.5,2.2,2.9,3.7,4c1.6,1.1,3.4,2,5.3,2.6c5,1.4,10.4,0.7,13.6-3.2l1.9-2.4l1.7,2.5
		c2.5,3.8,6.7,4.9,10.3,5.8c0.7,0.2,1.4,0.4,2.1,0.6c0.2-0.7,0.4-1.4,0.6-2.1h0c1-3.6,2.1-7.7,0.1-11.8l-1.3-2.7l3-0.4
		c5-0.7,8.3-5.1,9.6-10.1c0.5-1.9,0.6-4,0.4-5.9c-0.2-1.9-0.7-3.7-1.6-5.2c-1.4-2.4-3.7-4.3-7.1-4.9c-2.1,0-4.4,0.1-6.6,0.2
		c-3.1,0.7-6.1,2.1-8.2,4.1c-2.1,2-3.4,4.6-3.2,7.6c0.3,1.8,1.1,3.4,2.1,4.5c0.6,0.7,1.3,1.2,2,1.5c0.7,0.3,1.4,0.4,2.1,0.2
		c0.9-0.2,1.9-0.7,3-1.6l1.2-1.1l0.2,0.3c1.2-2.5,0.4-4.9-2.4-5.5c0.5,3.6-1.1,6.6-4.5,4.7c-2.6-2.5-2.3-4.9,0.1-7.3
		c4.6-3.9,7.8-1.6,10.7,2c1.8-2.7,3.5-5.4,6.5-6.6c2.4,9.5-2.3,11.3-5.3,14.7c2.6,0.3,5.9,0.5,7.2,2.9c-5.4,1.5-5.4,5.2-16.4,3.9
		c4.3,3.8,7.3,8,5.3,14.1c-6.3-1.3-8.4-6.1-9.5-11.6c-4.4,10.2-7.6,8.3-11.6,12.3c-1.5-2.3,0-5.2,1-7.7c-4.4,0.9-8.3,4-15.3-2.8
		c2.5-2,5.7-2.2,9-2.4c-1.7-4.3-2.1-8.3,3.6-10.3c3.2-0.9,5.5,0.1,6.3,3.6c-0.1,3.8-3.5,3.8-6.4,1.5c-0.9,2.7,0.7,4.6,3.6,4.8
		l-0.1-0.3l1.5-0.5c1.3-0.4,2.3-1.1,2.9-1.8c0.5-0.6,0.8-1.3,0.9-2c0.1-0.8,0-1.6-0.3-2.5c-0.5-1.5-1.5-2.9-2.9-4.1l0,0l0,0
		c-2.5-1.6-5.4-1.8-8.1-1C110.5,131.4,107.6,133.3,105.4,135.9z M113.5,111.3c0.3,1.9,0.3,4,0.2,6.3c0.9,2.4,1.9,4.6,3.1,6.6
		c-1.6,0-3.2-0.3-4.3-1.3c-0.4,1.2-1,2.4-1.6,3.6c0.4-0.1,0.8-0.3,1.2-0.4c3.5-1,7.1-0.9,10.5,0.7c0.2-3.7,2-6.9,4.6-9.4
		c0.3-0.3,0.6-0.5,0.9-0.8c-1.4-0.1-2.7-0.2-4-0.5c0.2,1.4-0.2,2.9-1,4.3c-1.1-2-2.5-4-4.2-6C116.8,113.6,115,112.5,113.5,111.3z
		 M104,99.6c1.1,0,2.2,0.3,3.2,0.8c0.1-1.2,0.4-2.3,0.9-3.2c-1.1-0.4-2.1-0.9-3.1-1.5c-0.3-0.2-0.6-0.4-0.9-0.6c0,0.4,0,0.7,0.1,1.1
		C104.2,97.3,104.1,98.4,104,99.6z M97.5,140.4c0.3-0.5,0.5-1,0.8-1.5c0.6-1.5,1.5-3.1,2.7-4.6c0.3-0.4,0.5-0.7,0.8-1l0.2-0.4
		c3.4-5.3,6.7-10.5,7.1-15.3c0.4-4.6-0.3-8-1.4-10.3c-0.7-1.3-1.5-2.2-2.3-2.8c-0.7-0.4-1.4-0.6-2-0.5c-0.3,0-0.6,0.2-0.9,0.4
		c-0.6,1.5-1.3,2.9-2.2,4.4c1.3,3.6,3.6,5.1,6.7,5c-1.5,4.2-4.2,5.2-7.2,5.7c3.3,6,2,11.1-2.4,15.5c-4.5-4.4-5.7-9.4-2.4-15.5
		c-3-0.5-5.7-1.5-7.2-5.7c3,0.1,5.4-1.3,6.7-5c-0.9-1.5-1.6-3-2.2-4.4c-0.3-0.2-0.6-0.3-0.9-0.4c-0.6-0.1-1.3,0.1-2,0.5
		c-0.8,0.5-1.6,1.4-2.3,2.8c-1.1,2.3-1.8,5.7-1.4,10.3c0.4,4.8,3.7,10,7.1,15.3l0.2,0.4c0.3,0.3,0.6,0.7,0.8,1
		c1.2,1.6,2,3.1,2.7,4.6C97,139.4,97.2,139.9,97.5,140.4z M99.7,70.9c0.1-2.7-0.7-5.6-2.2-8.7c-1.6,3.1-2.3,6-2.2,8.7
		c0.1,2.6,0.8,5.1,2.2,7.5C98.9,76,99.7,73.5,99.7,70.9z M90.5,29.8c0.5-0.8,1-1.6,1.5-2.4c2-3.9,1.7-7.5,0.1-10.3
		c-0.9-1.6-2.2-2.9-3.7-4c-1.6-1.1-3.4-2-5.3-2.6c-5-1.4-10.4-0.7-13.6,3.2l-1.9,2.4l-1.7-2.5c-2.5-3.8-6.7-4.9-10.3-5.8
		c-0.7-0.2-1.4-0.4-2.1-0.6c-0.2,0.7-0.4,1.4-0.6,2.1c-1,3.6-2.1,7.7-0.1,11.8l1.3,2.7l-3,0.4c-5,0.7-8.3,5.1-9.6,10.1
		c-0.5,1.9-0.6,4-0.4,5.9c0.2,1.9,0.7,3.7,1.6,5.2c2,3.4,5.8,5.7,12,5c3.7-0.4,7.4-2,10-4.4c2.1-2,3.4-4.6,3.2-7.6
		c-0.3-1.8-1.1-3.4-2.1-4.5c-0.6-0.7-1.3-1.2-2-1.5c-0.7-0.3-1.4-0.4-2.1-0.2c-0.9,0.2-1.9,0.7-3,1.6l-1.2,1.1l-0.2-0.3
		c-1.2,2.5-0.4,4.9,2.4,5.5c-0.5-3.6,1.1-6.6,4.5-4.7c2.6,2.5,2.3,4.9-0.1,7.3c-4.6,3.9-7.8,1.6-10.7-2c-1.8,2.7-3.5,5.4-6.5,6.6
		c-2.4-9.5,2.3-11.3,5.3-14.7c-2.6-0.3-5.9-0.5-7.2-2.9c5.4-1.5,5.4-5.2,16.4-3.9c-4.3-3.8-7.3-8-5.3-14.1c6.3,1.3,8.4,6.1,9.5,11.6
		C69.9,13,73.2,15,77.1,11c1.5,2.3,0,5.2-1,7.7c4.4-0.9,8.3-4,15.3,2.8c-2.5,2-5.7,2.2-9,2.4c1.7,4.3,2.1,8.3-3.6,10.3
		c-3.2,0.9-5.5-0.1-6.3-3.6c0.1-3.8,3.5-3.8,6.4-1.5c0.9-2.7-0.7-4.6-3.6-4.8l0.1,0.3L74,25c-1.3,0.4-2.3,1.1-2.9,1.8
		c-0.5,0.6-0.8,1.3-0.9,2c-0.1,0.8,0,1.6,0.3,2.5c0.5,1.5,1.5,2.9,2.9,4.1l0,0c2.5,1.6,5.4,1.8,8.2,1c3.4-1,6.6-3.4,8.8-6.4
		L90.5,29.8z M81.5,55.8c-0.3-1.9-0.3-4-0.2-6.3c-0.9-2.4-1.9-4.6-3.1-6.6c1.6,0,3.1,0.3,4.3,1.3c0.5-1.3,1.1-2.7,1.7-4
		c-0.5,0.2-0.9,0.3-1.4,0.5c-3.5,1-7.1,0.9-10.5-0.7c-0.2,3.7-2,6.9-4.6,9.4c-0.4,0.4-0.8,0.7-1.2,1c1.5,0.1,2.9,0.2,4.3,0.5
		c-0.2-1.4,0.2-2.9,1-4.3c1.1,2,2.5,4,4.2,6C78.2,53.6,80,54.7,81.5,55.8z M91,67.6c-1.1,0-2.2-0.3-3.2-0.8C87.7,68,87.4,69,86.9,70
		c1.1,0.4,2.1,0.9,3.1,1.5c0.3,0.2,0.6,0.4,0.9,0.6c0-0.4,0-0.7-0.1-1.1C90.8,69.9,90.9,68.8,91,67.6z M102.6,62.7
		c0.3,0.2,0.6,0.3,0.9,0.4c0.6,0.1,1.3-0.1,2-0.5c0.8-0.5,1.6-1.4,2.3-2.8c1.1-2.3,1.8-5.7,1.4-10.3c-0.4-4.8-3.7-10-7.1-15.3
		c-0.4-0.7-0.9-1.4-1.3-2.1c-0.7-0.9-1.2-1.9-1.7-2.8c-0.5-0.9-1-1.8-1.5-2.7c-0.5,0.9-1,1.8-1.5,2.7c-0.5,0.9-1,1.8-1.7,2.7
		c-0.4,0.7-0.9,1.4-1.3,2.1c-3.4,5.3-6.7,10.5-7.1,15.3c-0.4,4.6,0.3,8,1.4,10.3c0.7,1.3,1.5,2.2,2.3,2.8c0.7,0.4,1.4,0.6,2,0.5
		c0.3,0,0.6-0.2,0.9-0.4c0.6-1.5,1.3-2.9,2.2-4.4c-1.3-3.6-3.6-5.1-6.7-5c1.5-4.2,4.2-5.2,7.2-5.7c-3.3-6-2-11.1,2.4-15.5
		c4.5,4.4,5.7,9.4,2.4,15.5c3,0.5,5.7,1.5,7.2,5.7c-3-0.1-5.4,1.3-6.7,5C101.3,59.8,102.1,61.3,102.6,62.7z M107.2,66.8
		c-1.1,0.5-2.2,0.8-3.2,0.8c0.2,1.2,0.3,2.3,0.2,3.4c0,0.4,0,0.7-0.1,1.1c0.3-0.2,0.6-0.4,0.9-0.6c1-0.6,2-1.1,3.1-1.5
		C107.6,69,107.3,68,107.2,66.8z M110.8,40.2c0.7,1.3,1.3,2.7,1.7,4c1.1-0.9,2.6-1.3,4.3-1.3c-1.2,2-2.2,4.2-3.1,6.6
		c0.2,2.3,0.1,4.5-0.2,6.3c1.5-1.2,3.3-2.3,5.4-3.3c1.6-2,3.1-4,4.2-6c0.8,1.4,1.3,2.9,1,4.3c1.4-0.3,2.8-0.4,4.3-0.5
		c-0.4-0.3-0.8-0.7-1.2-1c-2.6-2.5-4.4-5.7-4.6-9.4c-3.3,1.7-7,1.8-10.5,0.7C111.7,40.5,111.2,40.3,110.8,40.2z M119.6,24.2
		c-2.8,0.2-4.5,2.1-3.6,4.8c2.9-2.3,6.3-2.3,6.4,1.5c-0.9,3.5-3.1,4.4-6.3,3.6c-5.7-2-5.3-5.9-3.6-10.3c-3.2-0.2-6.4-0.3-9-2.4
		c7-6.8,10.9-3.7,15.3-2.8c-1-2.4-2.5-5.4-1-7.7c4,3.9,7.2,2,11.6,12.3c1.1-5.6,3.2-10.3,9.5-11.6c2,6.1-1,10.3-5.3,14.1
		c11-1.3,11,2.4,16.4,3.9c-1.2,2.4-4.5,2.6-7.2,2.9c3,3.3,7.7,5.2,5.3,14.7c-3-1.2-4.8-3.9-6.5-6.6c-2.9,3.7-6.1,5.9-10.7,2
		c-2.4-2.4-2.7-4.8-0.1-7.3c3.4-1.8,5.1,1.1,4.5,4.7c2.8-0.5,3.6-2.9,2.4-5.5l-0.2,0.3l-1.2-1.1c-1-0.9-2.1-1.4-3-1.6
		c-0.7-0.1-1.5,0-2.1,0.2c-0.7,0.3-1.4,0.8-2,1.5c-1,1.2-1.8,2.8-2.1,4.5c-0.2,3,1.1,5.6,3.2,7.6c2.5,2.4,6.2,4,10,4.4
		c6.1,0.7,10-1.5,12-5c0.9-1.6,1.4-3.4,1.6-5.2c0.2-1.9,0-4-0.4-5.9c-1.2-5-4.6-9.4-9.6-10.1l-3-0.4l1.3-2.7c2-4.1,0.9-8.2-0.1-11.8
		c-0.2-0.7-0.4-1.4-0.6-2.1c-0.7,0.2-1.4,0.4-2.1,0.6c-3.6,1-7.7,2-10.3,5.8l-1.7,2.5l-1.9-2.4c-3.1-3.9-8.6-4.7-13.6-3.2
		c-1.9,0.6-3.7,1.4-5.3,2.6c-1.5,1.1-2.8,2.5-3.7,4l0,0c-1.6,2.8-2,6.4,0.1,10.3c0.5,0.8,1,1.6,1.5,2.4l0.1,0.2
		c2.2,3,5.5,5.4,8.8,6.4c2.8,0.8,5.7,0.6,8.2-1l0,0c1.4-1.2,2.4-2.6,2.9-4.1c0.3-0.8,0.4-1.7,0.3-2.5c-0.1-0.7-0.4-1.4-0.9-2
		c-0.6-0.7-1.6-1.4-2.9-1.8l-1.5-0.5L119.6,24.2z"/>
	<path class="st0" d="M97.4,166H77.2c-1.5,0-2.4-0.8-2.4-1.2c0-0.5,0-0.5,0-1c-0.6,0-1.3,0-1.9,0c0,6.1,0,12.1,0,18.2
		c1.2,0,2.4,0,3.5,0c0-1.4,0-2.9,0-4.3c0-4.4,3.6-9.7,16.5-9.7c0,16.7,0,32.8,0,49.5c0,3.7-2.6,6.8-7.6,6.8c0,0.8,0,2,0,2.8h12.1
		h12.1c0-0.8,0-2,0-2.8c-4.9,0-7.6-3-7.6-6.8c0-16.7,0-32.8,0-49.5c12.9,0,16.5,5.2,16.5,9.7c0,1.4,0,2.9,0,4.3c1.2,0,2.4,0,3.5,0
		c0-6.1,0-12.1,0-18.2c-0.6,0-1.3,0-1.9,0c0,0.5,0,0.5,0,1c0,0.4-0.9,1.2-2.4,1.2H97.4z"/>
	<path class="st0" d="M109.2,219.9h0.8h7.6v-1.6h-1.7c-1.7,0-3.4-1.8-3.4-3.3c0-10,0-17.9,0-27.9c0-1.5,1.1-2.7,3.3-2.7
		c0.7,0,1.3,0,2,0c0-0.3,0-1.2,0-1.5H110h-0.1h0h-0.1h0h-0.1h0h-0.1h0h-0.1h0h-0.1h-7.8c0,0.3,0,1.2,0,1.5c0.7,0,1.3,0,2,0
		c2.3,0,3.3,1.2,3.3,2.7v12.2H88v-12.2c0-1.5,1.1-2.7,3.3-2.7c0.7,0,1.3,0,2,0c0-0.3,0-1.2,0-1.5h-7.8h-0.1h0h-0.1h0h-0.1h0H85h0
		h-0.1h0h-0.1h-7.8c0,0.3,0,1.2,0,1.5c0.7,0,1.3,0,2,0c2.3,0,3.3,1.2,3.3,2.7c0,10,0,17.9,0,27.9c0,1.5-1.7,3.3-3.4,3.3h-1.7v1.6
		h7.6h0.8h7.6v-1.6h-1.7c-1.7,0-3.4-1.8-3.4-3.3v-13.3h18.8V215c0,1.5-1.7,3.3-3.4,3.3h-1.7v1.6H109.2z"/>
	<path class="st0" d="M92.2,237.7c-0.6,0-1.2,0-1.9,0c0-0.6,0-1.1,0-1.6c0.1-0.5,0.4-0.8,0.9-0.8c0.5,0,0.9,0.4,1,0.9
		c0,0.2,0,0.3,0,0.5C92.2,236.9,92.2,237.2,92.2,237.7 M90.3,240.4c0.4-0.1,0.8-0.2,1.1-0.2c0.4,0,0.8,0.3,0.8,0.8
		c0,0.1,0,0.2,0,0.4c0,4,0,8,0,12c0,0.2,0,0.5-0.1,0.9c-0.6,0-1.2,0-1.8,0C90.3,249.6,90.3,245.1,90.3,240.4z M25.4,254.3
		c-0.7,0-1.2,0-1.9,0c-0.1-5.6,0-11.2,0-17c-1,0-1.9-0.1-2.9-0.1c-0.3-0.6-0.4-1.3,0.1-1.9c2.3,0,4.7,0,7,0c0.7,0,1,0.4,1,1
		c0,0.6-0.3,0.9-1,1c-0.5,0-0.9,0-1.4,0c-0.9,0-1,0.2-1,1c0,4.3,0,8.6,0,12.9C25.4,252.1,25.4,253.1,25.4,254.3z M88,254.3
		c-0.5,0-0.9,0-1.5,0c0-0.5-0.1-1-0.1-1.5c0-2,0-4,0-6c0-0.9-0.1-1.7-0.3-2.6c-0.3-1-1-1.9-2-2.2c-1.2-0.5-2.5-0.5-3.7,0.3
		c-1.3,0.8-1.9,2-1.9,3.5c-0.1,2.3,0,4.6,0,6.9c0,0.5,0,1,0,1.5c-0.5,0-1,0-1.5,0c0-0.2-0.1-0.4-0.1-0.6c0-2.9,0-5.8,0-8.7
		c0-2,1.1-3.4,2.7-4.4c2.1-1.2,4.3-1.2,6.2,0.3c1.4,1,2.3,2.5,2.4,4.3c0.1,2.9,0,5.8,0,8.7C88.1,254,88.1,254.1,88,254.3z
		 M152.6,254.8c-0.5-0.2-0.8-0.4-1.2-0.4c-1.1-0.1-1.6-0.7-2-1.6c-0.3-0.7-0.5-1.4-0.7-2.1c-0.2-0.7-0.3-1.4-0.4-2
		c-0.2-1.2-0.4-2.3-0.7-3.5c-0.3-1.2-0.6-2.4-0.9-3.6c-0.1-0.4,0-0.9,0.1-1.3c0.1-0.2,0.7-0.3,0.9-0.2c0.4,0.2,0.7,0.6,0.8,1
		c0.3,1.1,0.4,2.2,0.6,3.3c0.2,1.1,0.5,2.2,0.7,3.2c0.3,1.2,0.6,2.4,0.9,3.6c0.2,0.9,0.6,1.4,1.2,1.5c0.7,0,1.1-0.3,1.4-1.4
		c0.5-2.2,1-4.5,1.5-6.7c0.3-1.2,0.6-2.4,0.9-3.6c0.3-1,0.5-1.1,1.7-0.7c0.1,0.8,0,1.6-0.3,2.4c-0.3,0.9-0.5,1.8-0.7,2.7
		c-0.2,1.1-0.4,2.2-0.6,3.3c-0.2,1.1-0.6,2.2-0.8,3.3c-0.2,1-0.5,2-0.7,3c-0.2,1-0.4,2.1-0.6,3.1c-0.2,0.8-0.8,1-2,0.6
		C152.1,257.6,152.3,256.3,152.6,254.8z M48.3,254.3c-0.5,0-1,0-1.5,0c0-6.3,0-12.6,0-18.8c1.3-0.3,1.5-0.2,1.5,1c0,1.1,0,2.2,0,3.4
		c0,0.4,0,0.8,0.1,1.4c0.8-0.4,1.6-0.7,2.3-1c2.1-1,5.1,0.3,6.1,1.9c0.9,1.4,1.4,2.8,1.3,4.5c-0.1,2.5,0,5,0,7.5
		c-0.2,0.1-0.3,0.2-0.4,0.2c-1.3,0.2-1.5,0-1.5-1.3c0-1.8,0-3.6,0-5.5c0-0.9-0.1-1.7-0.2-2.6c-0.1-2.1-2.4-3.4-4.2-3.2
		c-2.1,0.2-3.5,2.3-3.5,4.1c0,2.4,0,4.8,0,7.2C48.3,253.4,48.3,253.8,48.3,254.3z M67.5,252.8L67.5,252.8c2.9,0.5,5.8-3.1,5.7-5.4
		c-0.1-3.1-2.4-5.8-5.6-5.8c-3.3,0-5.5,2.2-5.7,5.6C61.6,250.1,64.8,253.1,67.5,252.8z M73.1,252.3c-0.7,0.4-1.2,0.7-1.7,1.1
		c-2,1.5-4.2,1.5-6.4,0.8c-1.4-0.4-2.6-1.3-3.5-2.6c-1.6-2.3-1.8-4.7-0.9-7.2c0.8-2,2.2-3.4,4.4-4.2c0.8-0.3,1.6-0.4,2.4-0.4
		c3.1-0.2,6.2,2.3,7,4.9c0.2,0.7,0.3,1.4,0.3,2.1c0,2.3,0,4.5,0,6.8c0,0.2,0,0.4-0.1,0.7c-0.5,0-1,0-1.5,0
		C73.2,253.6,73.1,253.1,73.1,252.3z M167.3,252.8L167.3,252.8c2.8,0.5,6-2.9,5.7-5.8c-0.2-2.8-2.4-5.4-5.6-5.4
		c-3.2,0-5.6,2.2-5.8,5.7C161.5,250,164.6,253.1,167.3,252.8z M174.6,254.3c-0.5,0-0.9,0-1.5,0c-0.1-0.6-0.1-1.2-0.2-1.9
		c-0.9,0.5-1.7,1.1-2.5,1.5c-1.3,0.6-2.7,0.9-4.2,0.6c-1.3-0.3-2.4-0.6-3.4-1.5c-1.9-1.6-2.8-3.5-2.7-6c0-3,1.5-5.1,4-6.4
		c3.1-1.6,6.8-0.7,8.9,1.8c1,1.2,1.6,2.4,1.6,4c0,2.4,0.1,4.7,0.1,7.1C174.7,253.7,174.6,254,174.6,254.3z M37.5,252.8L37.5,252.8
		c2.8,0.5,5.8-3,5.7-5.4c-0.1-3.2-2.4-5.7-5.7-5.7c-3.3,0-5.5,2.2-5.7,5.6C31.7,249.8,34.4,253.1,37.5,252.8z M44.7,254.3
		c-0.5,0-0.9,0-1.4,0c-0.1-0.6-0.1-1.2-0.2-1.9c-0.4,0.3-0.7,0.4-0.9,0.6c-1.7,1.4-3.6,1.7-5.8,1.5c-3-0.4-4.9-2.1-5.8-4.8
		c-0.8-2.3-0.5-4.6,0.9-6.7c1.1-1.5,2.6-2.6,4.5-3c2.3-0.5,4.5,0.1,6.3,1.7c1,0.8,1.7,1.9,2.2,3.1c0.1,0.3,0.3,0.7,0.3,1.1
		c0.1,2.6,0.1,5.3,0.1,7.9C44.8,253.8,44.7,254,44.7,254.3z M137.4,252.8L137.4,252.8c2.9,0.4,5.8-3,5.6-5.6
		c-0.2-3.2-2.6-5.6-5.6-5.6c-3.5,0-5.6,2.6-5.7,5.6C131.6,249.9,134.3,253.1,137.4,252.8z M144.5,254.4c-0.6-0.1-1-0.1-1.4-0.2
		c-0.1-0.6-0.1-1.2-0.2-1.9c-0.8,0.5-1.6,1-2.3,1.4c-1.4,0.7-2.9,0.9-4.5,0.7c-2.3-0.4-4-1.7-5.1-3.7c-0.5-0.9-1-1.9-0.9-3
		c0.1-1.1,0-2.2,0.4-3.3c1.3-3.2,4.6-5.2,8-4.6c2.5,0.4,4.4,1.8,5.6,4.2c0.4,0.8,0.6,1.7,0.6,2.6c0,2.3,0,4.5,0.1,6.8
		C144.7,253.7,144.6,254,144.5,254.4z M108,246.8L108,246.8l-2.1-9.2c-0.1-0.2-0.4-0.5-0.5-0.4c-0.2,0.1-0.5,0.3-0.6,0.5l-2,9.1
		C104.5,246.9,106.2,247,108,246.8z M102.2,248.6c-0.2,0.8-0.4,1.5-0.5,2.3c-0.2,0.9-0.4,1.8-0.7,2.6c-0.3,0.9-0.5,0.9-1.9,0.7
		c0-0.3-0.1-0.5,0-0.8l4.1-16.4c0.3-1.8,2.7-2.5,3.9-1c0.3,0.4,0.6,0.9,0.8,1.4l4,16.9c-0.5,0.1-1.1,0.1-1.7,0.2
		c-0.2-1-0.4-2-0.6-2.9c-0.2-0.8-0.4-1.5-0.6-2.3c-0.1-0.5-0.6-0.6-1-0.6C106,248.6,104.2,248.6,102.2,248.6z M120.8,252.8
		L120.8,252.8c2.6,0.4,5.8-2.7,5.7-5.7c-0.2-3.1-2.6-5.5-5.7-5.5c-3.4,0-5.6,2.7-5.7,5.7C115.1,250,117.8,253.1,120.8,252.8z
		 M113.6,235.3c1.3-0.1,1.4,0,1.5,1.1c0,1.4,0,2.8,0,4.2c0,0.4,0,0.9,0.1,1.5c0.3-0.2,0.6-0.4,0.8-0.5c1.7-1.5,3.8-2.1,6-1.7
		c2.5,0.4,4.4,1.9,5.6,4.2c0.6,1.1,0.5,2.2,0.5,3.3c0.2,3.6-2.4,6-4.7,6.8c-3.7,1.3-7.9-0.3-9.4-4.3c-0.3-0.7-0.4-1.4-0.4-2.2
		c0-3.8,0-7.6,0-11.4C113.5,236,113.6,235.7,113.6,235.3z"/>
</g>
</svg>
